<svg width="84" height="64" viewBox="0 0 84 64" fill="none" xmlns="http://www.w3.org/2000/svg">
<path d="M43 36H33C32.7348 36 32.4804 36.1054 32.2929 36.2929C32.1054 36.4804 32 36.7348 32 37C32 37.2652 32.1054 37.5196 32.2929 37.7071C32.4804 37.8946 32.7348 38 33 38H43C43.2652 38 43.5196 37.8946 43.7071 37.7071C43.8946 37.5196 44 37.2652 44 37C44 36.7348 43.8946 36.4804 43.7071 36.2929C43.5196 36.1054 43.2652 36 43 36ZM33 28H51C51.2652 28 51.5196 27.8946 51.7071 27.7071C51.8946 27.5196 52 27.2652 52 27C52 26.7348 51.8946 26.4804 51.7071 26.2929C51.5196 26.1054 51.2652 26 51 26H33C32.7348 26 32.4804 26.1054 32.2929 26.2929C32.1054 26.4804 32 26.7348 32 27C32 27.2652 32.1054 27.5196 32.2929 27.7071C32.4804 27.8946 32.7348 28 33 28ZM51 31H33C32.7348 31 32.4804 31.1054 32.2929 31.2929C32.1054 31.4804 32 31.7348 32 32C32 32.2652 32.1054 32.5196 32.2929 32.7071C32.4804 32.8946 32.7348 33 33 33H51C51.2652 33 51.5196 32.8946 51.7071 32.7071C51.8946 32.5196 52 32.2652 52 32C52 31.7348 51.8946 31.4804 51.7071 31.2929C51.5196 31.1054 51.2652 31 51 31Z" fill="#44566C"/>
</svg>
