<svg width="212" height="110" viewBox="0 0 212 110" fill="none" xmlns="http://www.w3.org/2000/svg">
<path d="M48.4045 60C48.3112 60 48.2319 59.972 48.1665 59.916C48.1105 59.8507 48.0825 59.7713 48.0825 59.678V51.838L45.7585 53.63C45.6839 53.686 45.6045 53.7093 45.5205 53.7C45.4365 53.6907 45.3665 53.6487 45.3105 53.574L44.9465 53.112C44.8905 53.028 44.8672 52.944 44.8765 52.86C44.8952 52.776 44.9419 52.706 45.0165 52.65L48.0685 50.298C48.1339 50.2513 48.1945 50.2233 48.2505 50.214C48.3065 50.2047 48.3672 50.2 48.4325 50.2H49.1465C49.2399 50.2 49.3145 50.2327 49.3705 50.298C49.4265 50.354 49.4545 50.4287 49.4545 50.522V59.678C49.4545 59.7713 49.4265 59.8507 49.3705 59.916C49.3145 59.972 49.2399 60 49.1465 60H48.4045ZM55.5004 60C55.3978 60 55.3184 59.972 55.2624 59.916C55.2064 59.8507 55.1784 59.7713 55.1784 59.678V50.536C55.1784 50.4333 55.2064 50.354 55.2624 50.298C55.3184 50.2327 55.3978 50.2 55.5004 50.2H59.3364C60.0364 50.2 60.6058 50.3167 61.0444 50.55C61.4924 50.774 61.8191 51.082 62.0244 51.474C62.2391 51.866 62.3464 52.3047 62.3464 52.79C62.3464 53.1727 62.2811 53.504 62.1504 53.784C62.0291 54.0547 61.8751 54.2787 61.6884 54.456C61.5018 54.624 61.3198 54.7547 61.1424 54.848C61.5064 55.0253 61.8284 55.3147 62.1084 55.716C62.3978 56.1173 62.5424 56.6027 62.5424 57.172C62.5424 57.6853 62.4258 58.1567 62.1924 58.586C61.9591 59.0153 61.6091 59.3607 61.1424 59.622C60.6851 59.874 60.1158 60 59.4344 60H55.5004ZM56.5504 58.866H59.2524C59.8591 58.866 60.3258 58.7027 60.6524 58.376C60.9791 58.0493 61.1424 57.648 61.1424 57.172C61.1424 56.6773 60.9791 56.2713 60.6524 55.954C60.3258 55.6273 59.8591 55.464 59.2524 55.464H56.5504V58.866ZM56.5504 54.344H59.1264C59.7238 54.344 60.1764 54.2087 60.4844 53.938C60.7924 53.658 60.9464 53.28 60.9464 52.804C60.9464 52.328 60.7924 51.964 60.4844 51.712C60.1764 51.46 59.7238 51.334 59.1264 51.334H56.5504V54.344ZM66.378 60.14C65.9113 60.14 65.4867 60.0467 65.104 59.86C64.7213 59.6733 64.4133 59.4213 64.18 59.104C63.9467 58.7867 63.83 58.4273 63.83 58.026C63.83 57.382 64.0913 56.8687 64.614 56.486C65.1367 56.1033 65.818 55.8513 66.658 55.73L68.744 55.436V55.03C68.744 54.582 68.6133 54.232 68.352 53.98C68.1 53.728 67.6847 53.602 67.106 53.602C66.686 53.602 66.3453 53.686 66.084 53.854C65.832 54.022 65.6547 54.2367 65.552 54.498C65.496 54.638 65.398 54.708 65.258 54.708H64.628C64.5253 54.708 64.446 54.68 64.39 54.624C64.3433 54.5587 64.32 54.484 64.32 54.4C64.32 54.26 64.3713 54.0873 64.474 53.882C64.586 53.6767 64.754 53.476 64.978 53.28C65.202 53.084 65.4867 52.9207 65.832 52.79C66.1867 52.65 66.616 52.58 67.12 52.58C67.68 52.58 68.1513 52.6547 68.534 52.804C68.9167 52.944 69.2153 53.1353 69.43 53.378C69.654 53.6207 69.8127 53.896 69.906 54.204C70.0087 54.512 70.06 54.8247 70.06 55.142V59.678C70.06 59.7713 70.0273 59.8507 69.962 59.916C69.906 59.972 69.8313 60 69.738 60H69.094C68.9913 60 68.912 59.972 68.856 59.916C68.8 59.8507 68.772 59.7713 68.772 59.678V59.076C68.6507 59.244 68.4873 59.412 68.282 59.58C68.0767 59.7387 67.82 59.874 67.512 59.986C67.204 60.0887 66.826 60.14 66.378 60.14ZM66.672 59.09C67.0547 59.09 67.4047 59.0107 67.722 58.852C68.0393 58.684 68.2867 58.4273 68.464 58.082C68.6507 57.7367 68.744 57.3027 68.744 56.78V56.388L67.12 56.626C66.4573 56.7193 65.958 56.878 65.622 57.102C65.286 57.3167 65.118 57.592 65.118 57.928C65.118 58.1893 65.1927 58.4087 65.342 58.586C65.5007 58.754 65.6967 58.88 65.93 58.964C66.1727 59.048 66.42 59.09 66.672 59.09ZM74.5926 60.14C74.07 60.14 73.622 60.0747 73.2486 59.944C72.8753 59.8133 72.572 59.6547 72.3386 59.468C72.1053 59.2813 71.928 59.0947 71.8066 58.908C71.6946 58.7213 71.634 58.572 71.6246 58.46C71.6153 58.3573 71.648 58.278 71.7226 58.222C71.7973 58.166 71.872 58.138 71.9466 58.138H72.5626C72.6186 58.138 72.6606 58.1473 72.6886 58.166C72.726 58.1753 72.7726 58.2127 72.8286 58.278C72.95 58.4087 73.0853 58.5393 73.2346 58.67C73.384 58.8007 73.566 58.908 73.7806 58.992C74.0046 59.076 74.28 59.118 74.6066 59.118C75.0826 59.118 75.4746 59.0293 75.7826 58.852C76.0906 58.6653 76.2446 58.3947 76.2446 58.04C76.2446 57.8067 76.1793 57.62 76.0486 57.48C75.9273 57.34 75.7033 57.214 75.3766 57.102C75.0593 56.99 74.6206 56.8733 74.0606 56.752C73.5006 56.6213 73.0573 56.4627 72.7306 56.276C72.404 56.08 72.1706 55.8513 72.0306 55.59C71.8906 55.3193 71.8206 55.016 71.8206 54.68C71.8206 54.3347 71.9233 54.0033 72.1286 53.686C72.334 53.3593 72.6326 53.0933 73.0246 52.888C73.426 52.6827 73.9253 52.58 74.5226 52.58C75.008 52.58 75.4233 52.6407 75.7686 52.762C76.114 52.8833 76.3986 53.0373 76.6226 53.224C76.8466 53.4013 77.0146 53.5787 77.1266 53.756C77.2386 53.9333 77.2993 54.0827 77.3086 54.204C77.318 54.2973 77.29 54.3767 77.2246 54.442C77.1593 54.498 77.0846 54.526 77.0006 54.526H76.4126C76.3473 54.526 76.2913 54.512 76.2446 54.484C76.2073 54.456 76.17 54.4233 76.1326 54.386C76.0393 54.2647 75.9273 54.1433 75.7966 54.022C75.6753 53.9007 75.512 53.8027 75.3066 53.728C75.1106 53.644 74.8493 53.602 74.5226 53.602C74.056 53.602 73.706 53.7 73.4726 53.896C73.2393 54.092 73.1226 54.3393 73.1226 54.638C73.1226 54.8153 73.174 54.974 73.2766 55.114C73.3793 55.254 73.5753 55.38 73.8646 55.492C74.154 55.604 74.5833 55.7253 75.1526 55.856C75.7686 55.9773 76.254 56.1407 76.6086 56.346C76.9633 56.5513 77.2153 56.7893 77.3646 57.06C77.514 57.3307 77.5886 57.6433 77.5886 57.998C77.5886 58.39 77.472 58.7493 77.2386 59.076C77.0146 59.4027 76.6786 59.664 76.2306 59.86C75.792 60.0467 75.246 60.14 74.5926 60.14ZM79.5313 60C79.438 60 79.3587 59.972 79.2933 59.916C79.2373 59.8507 79.2093 59.7713 79.2093 59.678V53.042C79.2093 52.9487 79.2373 52.874 79.2933 52.818C79.3587 52.7527 79.438 52.72 79.5313 52.72H80.2033C80.2967 52.72 80.3713 52.7527 80.4273 52.818C80.4833 52.874 80.5113 52.9487 80.5113 53.042V59.678C80.5113 59.7713 80.4833 59.8507 80.4273 59.916C80.3713 59.972 80.2967 60 80.2033 60H79.5313ZM79.4193 51.362C79.326 51.362 79.2467 51.334 79.1813 51.278C79.1253 51.2127 79.0973 51.1333 79.0973 51.04V50.284C79.0973 50.1907 79.1253 50.116 79.1813 50.06C79.2467 49.9947 79.326 49.962 79.4193 49.962H80.3013C80.3947 49.962 80.4693 49.9947 80.5253 50.06C80.5907 50.116 80.6233 50.1907 80.6233 50.284V51.04C80.6233 51.1333 80.5907 51.2127 80.5253 51.278C80.4693 51.334 80.3947 51.362 80.3013 51.362H79.4193ZM85.5673 60.14C84.9046 60.14 84.3306 60.014 83.8453 59.762C83.3693 59.5007 83.0006 59.132 82.7393 58.656C82.478 58.1707 82.338 57.592 82.3193 56.92C82.31 56.78 82.3053 56.5933 82.3053 56.36C82.3053 56.1267 82.31 55.94 82.3193 55.8C82.338 55.128 82.478 54.554 82.7393 54.078C83.0006 53.5927 83.3693 53.224 83.8453 52.972C84.3306 52.7107 84.9046 52.58 85.5673 52.58C86.1086 52.58 86.5706 52.6547 86.9533 52.804C87.3453 52.9533 87.6673 53.1447 87.9193 53.378C88.1713 53.6113 88.358 53.8633 88.4793 54.134C88.61 54.4047 88.68 54.6613 88.6893 54.904C88.6986 54.9973 88.6706 55.072 88.6053 55.128C88.54 55.184 88.4606 55.212 88.3673 55.212H87.6953C87.602 55.212 87.532 55.1933 87.4853 55.156C87.4386 55.1093 87.392 55.0347 87.3453 54.932C87.1773 54.4747 86.9486 54.1527 86.6593 53.966C86.37 53.7793 86.0106 53.686 85.5813 53.686C85.0213 53.686 84.564 53.8587 84.2093 54.204C83.864 54.5493 83.6773 55.1047 83.6493 55.87C83.64 56.206 83.64 56.5327 83.6493 56.85C83.6773 57.6247 83.864 58.1847 84.2093 58.53C84.564 58.866 85.0213 59.034 85.5813 59.034C86.0106 59.034 86.37 58.9407 86.6593 58.754C86.9486 58.5673 87.1773 58.2453 87.3453 57.788C87.392 57.6853 87.4386 57.6153 87.4853 57.578C87.532 57.5313 87.602 57.508 87.6953 57.508H88.3673C88.4606 57.508 88.54 57.536 88.6053 57.592C88.6706 57.648 88.6986 57.7227 88.6893 57.816C88.68 58.012 88.638 58.2127 88.5633 58.418C88.4886 58.6233 88.3673 58.8333 88.1993 59.048C88.0406 59.2533 87.84 59.44 87.5973 59.608C87.3546 59.7667 87.0606 59.8973 86.7153 60C86.3793 60.0933 85.9966 60.14 85.5673 60.14ZM92.9384 60C92.8638 60 92.7984 59.972 92.7424 59.916C92.6864 59.86 92.6584 59.7947 92.6584 59.72C92.6584 59.6733 92.6631 59.622 92.6724 59.566L96.1444 50.508C96.1818 50.4147 96.2331 50.34 96.2984 50.284C96.3638 50.228 96.4618 50.2 96.5924 50.2H97.5444C97.6658 50.2 97.7591 50.228 97.8244 50.284C97.8991 50.34 97.9551 50.4147 97.9924 50.508L101.45 59.566C101.469 59.622 101.478 59.6733 101.478 59.72C101.478 59.7947 101.45 59.86 101.394 59.916C101.338 59.972 101.273 60 101.198 60H100.484C100.372 60 100.288 59.972 100.232 59.916C100.186 59.86 100.153 59.8087 100.134 59.762L99.3644 57.774H94.7724L94.0024 59.762C93.9931 59.8087 93.9604 59.86 93.9044 59.916C93.8484 59.972 93.7644 60 93.6524 60H92.9384ZM95.1784 56.57H98.9584L97.0684 51.6L95.1784 56.57ZM103.115 60C103.022 60 102.943 59.972 102.877 59.916C102.821 59.8507 102.793 59.7713 102.793 59.678V53.042C102.793 52.9487 102.821 52.874 102.877 52.818C102.943 52.7527 103.022 52.72 103.115 52.72H103.773C103.867 52.72 103.941 52.7527 103.997 52.818C104.063 52.874 104.095 52.9487 104.095 53.042V53.658C104.338 53.3407 104.641 53.084 105.005 52.888C105.379 52.6827 105.855 52.58 106.433 52.58C107.04 52.58 107.553 52.7153 107.973 52.986C108.403 53.2473 108.725 53.616 108.939 54.092C109.154 54.5587 109.261 55.1047 109.261 55.73V59.678C109.261 59.7713 109.233 59.8507 109.177 59.916C109.121 59.972 109.047 60 108.953 60H108.253C108.16 60 108.081 59.972 108.015 59.916C107.959 59.8507 107.931 59.7713 107.931 59.678V55.8C107.931 55.1467 107.773 54.638 107.455 54.274C107.138 53.9007 106.671 53.714 106.055 53.714C105.477 53.714 105.01 53.9007 104.655 54.274C104.31 54.638 104.137 55.1467 104.137 55.8V59.678C104.137 59.7713 104.105 59.8507 104.039 59.916C103.983 59.972 103.909 60 103.815 60H103.115ZM113.314 60.14C112.847 60.14 112.422 60.0467 112.04 59.86C111.657 59.6733 111.349 59.4213 111.116 59.104C110.882 58.7867 110.766 58.4273 110.766 58.026C110.766 57.382 111.027 56.8687 111.55 56.486C112.072 56.1033 112.754 55.8513 113.594 55.73L115.68 55.436V55.03C115.68 54.582 115.549 54.232 115.288 53.98C115.036 53.728 114.62 53.602 114.042 53.602C113.622 53.602 113.281 53.686 113.02 53.854C112.768 54.022 112.59 54.2367 112.488 54.498C112.432 54.638 112.334 54.708 112.194 54.708H111.564C111.461 54.708 111.382 54.68 111.326 54.624C111.279 54.5587 111.256 54.484 111.256 54.4C111.256 54.26 111.307 54.0873 111.41 53.882C111.522 53.6767 111.69 53.476 111.914 53.28C112.138 53.084 112.422 52.9207 112.768 52.79C113.122 52.65 113.552 52.58 114.056 52.58C114.616 52.58 115.087 52.6547 115.47 52.804C115.852 52.944 116.151 53.1353 116.366 53.378C116.59 53.6207 116.748 53.896 116.842 54.204C116.944 54.512 116.996 54.8247 116.996 55.142V59.678C116.996 59.7713 116.963 59.8507 116.898 59.916C116.842 59.972 116.767 60 116.674 60H116.03C115.927 60 115.848 59.972 115.792 59.916C115.736 59.8507 115.708 59.7713 115.708 59.678V59.076C115.586 59.244 115.423 59.412 115.218 59.58C115.012 59.7387 114.756 59.874 114.448 59.986C114.14 60.0887 113.762 60.14 113.314 60.14ZM113.608 59.09C113.99 59.09 114.34 59.0107 114.658 58.852C114.975 58.684 115.222 58.4273 115.4 58.082C115.586 57.7367 115.68 57.3027 115.68 56.78V56.388L114.056 56.626C113.393 56.7193 112.894 56.878 112.558 57.102C112.222 57.3167 112.054 57.592 112.054 57.928C112.054 58.1893 112.128 58.4087 112.278 58.586C112.436 58.754 112.632 58.88 112.866 58.964C113.108 59.048 113.356 59.09 113.608 59.09ZM119.344 60C119.251 60 119.172 59.972 119.106 59.916C119.05 59.8507 119.022 59.7713 119.022 59.678V50.382C119.022 50.2887 119.05 50.214 119.106 50.158C119.172 50.0927 119.251 50.06 119.344 50.06H120.002C120.105 50.06 120.184 50.0927 120.24 50.158C120.296 50.214 120.324 50.2887 120.324 50.382V59.678C120.324 59.7713 120.296 59.8507 120.24 59.916C120.184 59.972 120.105 60 120.002 60H119.344ZM123.686 62.66C123.612 62.66 123.546 62.632 123.49 62.576C123.434 62.52 123.406 62.4547 123.406 62.38C123.406 62.3427 123.411 62.3053 123.42 62.268C123.43 62.2307 123.448 62.184 123.476 62.128L124.554 59.566L121.88 53.252C121.834 53.14 121.81 53.0607 121.81 53.014C121.81 52.93 121.838 52.86 121.894 52.804C121.95 52.748 122.02 52.72 122.104 52.72H122.79C122.884 52.72 122.958 52.7433 123.014 52.79C123.07 52.8367 123.108 52.8927 123.126 52.958L125.254 58.054L127.438 52.958C127.466 52.8927 127.504 52.8367 127.55 52.79C127.606 52.7433 127.686 52.72 127.788 52.72H128.446C128.53 52.72 128.6 52.748 128.656 52.804C128.712 52.86 128.74 52.9253 128.74 53C128.74 53.0467 128.717 53.1307 128.67 53.252L124.694 62.422C124.666 62.4873 124.624 62.5433 124.568 62.59C124.522 62.6367 124.447 62.66 124.344 62.66H123.686ZM132.425 60.14C131.902 60.14 131.454 60.0747 131.081 59.944C130.707 59.8133 130.404 59.6547 130.171 59.468C129.937 59.2813 129.76 59.0947 129.639 58.908C129.527 58.7213 129.466 58.572 129.457 58.46C129.447 58.3573 129.48 58.278 129.555 58.222C129.629 58.166 129.704 58.138 129.779 58.138H130.395C130.451 58.138 130.493 58.1473 130.521 58.166C130.558 58.1753 130.605 58.2127 130.661 58.278C130.782 58.4087 130.917 58.5393 131.067 58.67C131.216 58.8007 131.398 58.908 131.613 58.992C131.837 59.076 132.112 59.118 132.439 59.118C132.915 59.118 133.307 59.0293 133.615 58.852C133.923 58.6653 134.077 58.3947 134.077 58.04C134.077 57.8067 134.011 57.62 133.881 57.48C133.759 57.34 133.535 57.214 133.209 57.102C132.891 56.99 132.453 56.8733 131.893 56.752C131.333 56.6213 130.889 56.4627 130.563 56.276C130.236 56.08 130.003 55.8513 129.863 55.59C129.723 55.3193 129.653 55.016 129.653 54.68C129.653 54.3347 129.755 54.0033 129.961 53.686C130.166 53.3593 130.465 53.0933 130.857 52.888C131.258 52.6827 131.757 52.58 132.355 52.58C132.84 52.58 133.255 52.6407 133.601 52.762C133.946 52.8833 134.231 53.0373 134.455 53.224C134.679 53.4013 134.847 53.5787 134.959 53.756C135.071 53.9333 135.131 54.0827 135.141 54.204C135.15 54.2973 135.122 54.3767 135.057 54.442C134.991 54.498 134.917 54.526 134.833 54.526H134.245C134.179 54.526 134.123 54.512 134.077 54.484C134.039 54.456 134.002 54.4233 133.965 54.386C133.871 54.2647 133.759 54.1433 133.629 54.022C133.507 53.9007 133.344 53.8027 133.139 53.728C132.943 53.644 132.681 53.602 132.355 53.602C131.888 53.602 131.538 53.7 131.305 53.896C131.071 54.092 130.955 54.3393 130.955 54.638C130.955 54.8153 131.006 54.974 131.109 55.114C131.211 55.254 131.407 55.38 131.697 55.492C131.986 55.604 132.415 55.7253 132.985 55.856C133.601 55.9773 134.086 56.1407 134.441 56.346C134.795 56.5513 135.047 56.7893 135.197 57.06C135.346 57.3307 135.421 57.6433 135.421 57.998C135.421 58.39 135.304 58.7493 135.071 59.076C134.847 59.4027 134.511 59.664 134.063 59.86C133.624 60.0467 133.078 60.14 132.425 60.14ZM137.363 60C137.27 60 137.191 59.972 137.125 59.916C137.069 59.8507 137.041 59.7713 137.041 59.678V53.042C137.041 52.9487 137.069 52.874 137.125 52.818C137.191 52.7527 137.27 52.72 137.363 52.72H138.035C138.129 52.72 138.203 52.7527 138.259 52.818C138.315 52.874 138.343 52.9487 138.343 53.042V59.678C138.343 59.7713 138.315 59.8507 138.259 59.916C138.203 59.972 138.129 60 138.035 60H137.363ZM137.251 51.362C137.158 51.362 137.079 51.334 137.013 51.278C136.957 51.2127 136.929 51.1333 136.929 51.04V50.284C136.929 50.1907 136.957 50.116 137.013 50.06C137.079 49.9947 137.158 49.962 137.251 49.962H138.133C138.227 49.962 138.301 49.9947 138.357 50.06C138.423 50.116 138.455 50.1907 138.455 50.284V51.04C138.455 51.1333 138.423 51.2127 138.357 51.278C138.301 51.334 138.227 51.362 138.133 51.362H137.251ZM143.034 60.14C142.511 60.14 142.063 60.0747 141.69 59.944C141.317 59.8133 141.013 59.6547 140.78 59.468C140.547 59.2813 140.369 59.0947 140.248 58.908C140.136 58.7213 140.075 58.572 140.066 58.46C140.057 58.3573 140.089 58.278 140.164 58.222C140.239 58.166 140.313 58.138 140.388 58.138H141.004C141.06 58.138 141.102 58.1473 141.13 58.166C141.167 58.1753 141.214 58.2127 141.27 58.278C141.391 58.4087 141.527 58.5393 141.676 58.67C141.825 58.8007 142.007 58.908 142.222 58.992C142.446 59.076 142.721 59.118 143.048 59.118C143.524 59.118 143.916 59.0293 144.224 58.852C144.532 58.6653 144.686 58.3947 144.686 58.04C144.686 57.8067 144.621 57.62 144.49 57.48C144.369 57.34 144.145 57.214 143.818 57.102C143.501 56.99 143.062 56.8733 142.502 56.752C141.942 56.6213 141.499 56.4627 141.172 56.276C140.845 56.08 140.612 55.8513 140.472 55.59C140.332 55.3193 140.262 55.016 140.262 54.68C140.262 54.3347 140.365 54.0033 140.57 53.686C140.775 53.3593 141.074 53.0933 141.466 52.888C141.867 52.6827 142.367 52.58 142.964 52.58C143.449 52.58 143.865 52.6407 144.21 52.762C144.555 52.8833 144.84 53.0373 145.064 53.224C145.288 53.4013 145.456 53.5787 145.568 53.756C145.68 53.9333 145.741 54.0827 145.75 54.204C145.759 54.2973 145.731 54.3767 145.666 54.442C145.601 54.498 145.526 54.526 145.442 54.526H144.854C144.789 54.526 144.733 54.512 144.686 54.484C144.649 54.456 144.611 54.4233 144.574 54.386C144.481 54.2647 144.369 54.1433 144.238 54.022C144.117 53.9007 143.953 53.8027 143.748 53.728C143.552 53.644 143.291 53.602 142.964 53.602C142.497 53.602 142.147 53.7 141.914 53.896C141.681 54.092 141.564 54.3393 141.564 54.638C141.564 54.8153 141.615 54.974 141.718 55.114C141.821 55.254 142.017 55.38 142.306 55.492C142.595 55.604 143.025 55.7253 143.594 55.856C144.21 55.9773 144.695 56.1407 145.05 56.346C145.405 56.5513 145.657 56.7893 145.806 57.06C145.955 57.3307 146.03 57.6433 146.03 57.998C146.03 58.39 145.913 58.7493 145.68 59.076C145.456 59.4027 145.12 59.664 144.672 59.86C144.233 60.0467 143.687 60.14 143.034 60.14Z" fill="#4F5665"/>
<path d="M10.8463 59.7299C10.7151 59.7302 10.585 59.7045 10.4637 59.6544C10.3424 59.6043 10.2322 59.5307 10.1393 59.4379L5.89734 55.1949C5.80177 55.1027 5.72551 54.9924 5.67301 54.8705C5.62052 54.7485 5.59284 54.6173 5.5916 54.4845C5.59035 54.3517 5.61556 54.22 5.66575 54.0971C5.71595 53.9742 5.79012 53.8625 5.88395 53.7685C5.97777 53.6746 6.08937 53.6002 6.21223 53.5499C6.33509 53.4995 6.46675 53.4741 6.59953 53.4752C6.73231 53.4762 6.86354 53.5037 6.98559 53.556C7.10763 53.6083 7.21802 53.6845 7.31034 53.7799L10.8453 57.3149L17.2103 50.9519C17.3978 50.7643 17.6522 50.6588 17.9175 50.6587C18.1828 50.6586 18.4372 50.7639 18.6248 50.9514C18.8125 51.1389 18.9179 51.3933 18.918 51.6585C18.9181 51.9238 18.8128 52.1783 18.6253 52.3659L11.5533 59.4379C11.4605 59.5307 11.3503 59.6043 11.229 59.6544C11.1076 59.7045 10.9776 59.7302 10.8463 59.7299Z" fill="#2FAB73"/>
<path d="M49.4545 100.14C48.6705 100.14 47.9939 100 47.4245 99.72C46.8645 99.44 46.4305 99.0153 46.1225 98.446C45.8239 97.8673 45.6745 97.1253 45.6745 96.22V90.536C45.6745 90.4333 45.7025 90.354 45.7585 90.298C45.8145 90.2327 45.8939 90.2 45.9965 90.2H46.7105C46.8132 90.2 46.8925 90.2327 46.9485 90.298C47.0139 90.354 47.0465 90.4333 47.0465 90.536V96.248C47.0465 97.1627 47.2612 97.8393 47.6905 98.278C48.1199 98.7167 48.7079 98.936 49.4545 98.936C50.1919 98.936 50.7752 98.7167 51.2045 98.278C51.6432 97.8393 51.8625 97.1627 51.8625 96.248V90.536C51.8625 90.4333 51.8905 90.354 51.9465 90.298C52.0119 90.2327 52.0912 90.2 52.1845 90.2H52.9125C53.0059 90.2 53.0805 90.2327 53.1365 90.298C53.2019 90.354 53.2345 90.4333 53.2345 90.536V96.22C53.2345 97.1253 53.0805 97.8673 52.7725 98.446C52.4739 99.0153 52.0445 99.44 51.4845 99.72C50.9245 100 50.2479 100.14 49.4545 100.14ZM55.7149 100C55.6216 100 55.5423 99.972 55.4769 99.916C55.4209 99.8507 55.3929 99.7713 55.3929 99.678V93.042C55.3929 92.9487 55.4209 92.874 55.4769 92.818C55.5423 92.7527 55.6216 92.72 55.7149 92.72H56.3729C56.4663 92.72 56.5409 92.7527 56.5969 92.818C56.6623 92.874 56.6949 92.9487 56.6949 93.042V93.658C56.9376 93.3407 57.2409 93.084 57.6049 92.888C57.9783 92.6827 58.4543 92.58 59.0329 92.58C59.6396 92.58 60.1529 92.7153 60.5729 92.986C61.0023 93.2473 61.3243 93.616 61.5389 94.092C61.7536 94.5587 61.8609 95.1047 61.8609 95.73V99.678C61.8609 99.7713 61.8329 99.8507 61.7769 99.916C61.7209 99.972 61.6463 100 61.5529 100H60.8529C60.7596 100 60.6803 99.972 60.6149 99.916C60.5589 99.8507 60.5309 99.7713 60.5309 99.678V95.8C60.5309 95.1467 60.3723 94.638 60.0549 94.274C59.7376 93.9007 59.2709 93.714 58.6549 93.714C58.0763 93.714 57.6096 93.9007 57.2549 94.274C56.9096 94.638 56.7369 95.1467 56.7369 95.8V99.678C56.7369 99.7713 56.7043 99.8507 56.6389 99.916C56.5829 99.972 56.5083 100 56.4149 100H55.7149ZM64.2192 100C64.1258 100 64.0465 99.972 63.9812 99.916C63.9252 99.8507 63.8972 99.7713 63.8972 99.678V90.382C63.8972 90.2887 63.9252 90.214 63.9812 90.158C64.0465 90.0927 64.1258 90.06 64.2192 90.06H64.8772C64.9798 90.06 65.0592 90.0927 65.1152 90.158C65.1712 90.214 65.1992 90.2887 65.1992 90.382V99.678C65.1992 99.7713 65.1712 99.8507 65.1152 99.916C65.0592 99.972 64.9798 100 64.8772 100H64.2192ZM67.7462 100C67.6529 100 67.5735 99.972 67.5082 99.916C67.4522 99.8507 67.4242 99.7713 67.4242 99.678V93.042C67.4242 92.9487 67.4522 92.874 67.5082 92.818C67.5735 92.7527 67.6529 92.72 67.7462 92.72H68.4182C68.5115 92.72 68.5862 92.7527 68.6422 92.818C68.6982 92.874 68.7262 92.9487 68.7262 93.042V99.678C68.7262 99.7713 68.6982 99.8507 68.6422 99.916C68.5862 99.972 68.5115 100 68.4182 100H67.7462ZM67.6342 91.362C67.5409 91.362 67.4615 91.334 67.3962 91.278C67.3402 91.2127 67.3122 91.1333 67.3122 91.04V90.284C67.3122 90.1907 67.3402 90.116 67.3962 90.06C67.4615 89.9947 67.5409 89.962 67.6342 89.962H68.5162C68.6095 89.962 68.6842 89.9947 68.7402 90.06C68.8055 90.116 68.8382 90.1907 68.8382 90.284V91.04C68.8382 91.1333 68.8055 91.2127 68.7402 91.278C68.6842 91.334 68.6095 91.362 68.5162 91.362H67.6342ZM71.2735 100C71.1802 100 71.1009 99.972 71.0355 99.916C70.9795 99.8507 70.9515 99.7713 70.9515 99.678V93.042C70.9515 92.9487 70.9795 92.874 71.0355 92.818C71.1009 92.7527 71.1802 92.72 71.2735 92.72H71.9035C71.9969 92.72 72.0715 92.7527 72.1275 92.818C72.1929 92.874 72.2255 92.9487 72.2255 93.042V93.532C72.4402 93.2427 72.7109 93.014 73.0375 92.846C73.3642 92.6687 73.7562 92.58 74.2135 92.58C75.2682 92.5707 76.0149 93 76.4535 93.868C76.6682 93.476 76.9809 93.1633 77.3915 92.93C77.8022 92.6967 78.2689 92.58 78.7915 92.58C79.2769 92.58 79.7155 92.692 80.1075 92.916C80.5089 93.14 80.8215 93.4807 81.0455 93.938C81.2789 94.386 81.3955 94.9507 81.3955 95.632V99.678C81.3955 99.7713 81.3629 99.8507 81.2975 99.916C81.2415 99.972 81.1669 100 81.0735 100H80.4155C80.3222 100 80.2429 99.972 80.1775 99.916C80.1215 99.8507 80.0935 99.7713 80.0935 99.678V95.758C80.0935 95.2353 80.0189 94.8247 79.8695 94.526C79.7202 94.2273 79.5195 94.0173 79.2675 93.896C79.0155 93.7747 78.7402 93.714 78.4415 93.714C78.1989 93.714 77.9515 93.7747 77.6995 93.896C77.4475 94.0173 77.2375 94.2273 77.0695 94.526C76.9109 94.8247 76.8315 95.2353 76.8315 95.758V99.678C76.8315 99.7713 76.7989 99.8507 76.7335 99.916C76.6775 99.972 76.6029 100 76.5095 100H75.8515C75.7582 100 75.6789 99.972 75.6135 99.916C75.5575 99.8507 75.5295 99.7713 75.5295 99.678V95.758C75.5295 95.2353 75.4502 94.8247 75.2915 94.526C75.1329 94.2273 74.9275 94.0173 74.6755 93.896C74.4235 93.7747 74.1575 93.714 73.8775 93.714C73.6349 93.714 73.3875 93.7747 73.1355 93.896C72.8835 94.0173 72.6735 94.2273 72.5055 94.526C72.3469 94.8247 72.2675 95.2307 72.2675 95.744V99.678C72.2675 99.7713 72.2349 99.8507 72.1695 99.916C72.1135 99.972 72.0389 100 71.9455 100H71.2735ZM83.7149 100C83.6216 100 83.5423 99.972 83.4769 99.916C83.4209 99.8507 83.3929 99.7713 83.3929 99.678V93.042C83.3929 92.9487 83.4209 92.874 83.4769 92.818C83.5423 92.7527 83.6216 92.72 83.7149 92.72H84.3869C84.4803 92.72 84.5549 92.7527 84.6109 92.818C84.6669 92.874 84.6949 92.9487 84.6949 93.042V99.678C84.6949 99.7713 84.6669 99.8507 84.6109 99.916C84.5549 99.972 84.4803 100 84.3869 100H83.7149ZM83.6029 91.362C83.5096 91.362 83.4303 91.334 83.3649 91.278C83.3089 91.2127 83.2809 91.1333 83.2809 91.04V90.284C83.2809 90.1907 83.3089 90.116 83.3649 90.06C83.4303 89.9947 83.5096 89.962 83.6029 89.962H84.4849C84.5783 89.962 84.6529 89.9947 84.7089 90.06C84.7743 90.116 84.8069 90.1907 84.8069 90.284V91.04C84.8069 91.1333 84.7743 91.2127 84.7089 91.278C84.6529 91.334 84.5783 91.362 84.4849 91.362H83.6029ZM89.6256 100C89.1029 100 88.6782 99.902 88.3516 99.706C88.0249 99.5007 87.7869 99.216 87.6376 98.852C87.4882 98.4787 87.4136 98.04 87.4136 97.536V93.84H86.3216C86.2282 93.84 86.1489 93.812 86.0836 93.756C86.0276 93.6907 85.9996 93.6113 85.9996 93.518V93.042C85.9996 92.9487 86.0276 92.874 86.0836 92.818C86.1489 92.7527 86.2282 92.72 86.3216 92.72H87.4136V90.382C87.4136 90.2887 87.4416 90.214 87.4976 90.158C87.5629 90.0927 87.6422 90.06 87.7356 90.06H88.3936C88.4869 90.06 88.5616 90.0927 88.6176 90.158C88.6829 90.214 88.7156 90.2887 88.7156 90.382V92.72H90.4516C90.5449 92.72 90.6196 92.7527 90.6756 92.818C90.7409 92.874 90.7736 92.9487 90.7736 93.042V93.518C90.7736 93.6113 90.7409 93.6907 90.6756 93.756C90.6196 93.812 90.5449 93.84 90.4516 93.84H88.7156V97.438C88.7156 97.8767 88.7902 98.222 88.9396 98.474C89.0889 98.726 89.3549 98.852 89.7376 98.852H90.5916C90.6849 98.852 90.7596 98.8847 90.8156 98.95C90.8809 99.006 90.9136 99.0807 90.9136 99.174V99.678C90.9136 99.7713 90.8809 99.8507 90.8156 99.916C90.7596 99.972 90.6849 100 90.5916 100H89.6256ZM95.1503 100.14C94.189 100.14 93.4236 99.846 92.8543 99.258C92.285 98.6607 91.9723 97.8487 91.9163 96.822C91.907 96.7007 91.9023 96.5467 91.9023 96.36C91.9023 96.164 91.907 96.0053 91.9163 95.884C91.9536 95.2213 92.1076 94.6427 92.3783 94.148C92.649 93.644 93.0176 93.2567 93.4843 92.986C93.9603 92.7153 94.5156 92.58 95.1503 92.58C95.8596 92.58 96.4523 92.7293 96.9283 93.028C97.4136 93.3267 97.7823 93.7513 98.0343 94.302C98.2863 94.8527 98.4123 95.4967 98.4123 96.234V96.472C98.4123 96.5747 98.3796 96.654 98.3143 96.71C98.2583 96.766 98.1836 96.794 98.0903 96.794H93.2463C93.2463 96.8033 93.2463 96.822 93.2463 96.85C93.2463 96.878 93.2463 96.9013 93.2463 96.92C93.265 97.3027 93.349 97.662 93.4983 97.998C93.6476 98.3247 93.8623 98.5907 94.1423 98.796C94.4223 99.0013 94.7583 99.104 95.1503 99.104C95.4863 99.104 95.7663 99.0527 95.9903 98.95C96.2143 98.8473 96.3963 98.7353 96.5363 98.614C96.6763 98.4833 96.7696 98.3853 96.8163 98.32C96.9003 98.1987 96.9656 98.1287 97.0123 98.11C97.059 98.082 97.1336 98.068 97.2363 98.068H97.9083C98.0016 98.068 98.0763 98.096 98.1323 98.152C98.1976 98.1987 98.2256 98.2687 98.2163 98.362C98.207 98.502 98.1323 98.6747 97.9923 98.88C97.8523 99.076 97.6516 99.272 97.3903 99.468C97.129 99.664 96.8116 99.8273 96.4383 99.958C96.065 100.079 95.6356 100.14 95.1503 100.14ZM93.2463 95.828H97.0823V95.786C97.0823 95.366 97.003 94.9927 96.8443 94.666C96.695 94.3393 96.4756 94.0827 96.1863 93.896C95.897 93.7 95.5516 93.602 95.1503 93.602C94.749 93.602 94.4036 93.7 94.1143 93.896C93.8343 94.0827 93.6196 94.3393 93.4703 94.666C93.321 94.9927 93.2463 95.366 93.2463 95.786V95.828ZM102.746 100.14C102.233 100.14 101.79 100.051 101.416 99.874C101.043 99.6873 100.735 99.44 100.492 99.132C100.259 98.8147 100.082 98.4553 99.9603 98.054C99.8483 97.6527 99.783 97.228 99.7643 96.78C99.755 96.6307 99.7503 96.4907 99.7503 96.36C99.7503 96.2293 99.755 96.0893 99.7643 95.94C99.783 95.5013 99.8483 95.0813 99.9603 94.68C100.082 94.2787 100.259 93.9193 100.492 93.602C100.735 93.2847 101.043 93.0373 101.416 92.86C101.79 92.6733 102.233 92.58 102.746 92.58C103.297 92.58 103.754 92.678 104.118 92.874C104.482 93.07 104.781 93.3127 105.014 93.602V90.382C105.014 90.2887 105.042 90.214 105.098 90.158C105.164 90.0927 105.243 90.06 105.336 90.06H106.008C106.102 90.06 106.176 90.0927 106.232 90.158C106.298 90.214 106.33 90.2887 106.33 90.382V99.678C106.33 99.7713 106.298 99.8507 106.232 99.916C106.176 99.972 106.102 100 106.008 100H105.378C105.276 100 105.196 99.972 105.14 99.916C105.084 99.8507 105.056 99.7713 105.056 99.678V99.09C104.823 99.3887 104.52 99.6407 104.146 99.846C103.773 100.042 103.306 100.14 102.746 100.14ZM103.04 99.006C103.507 99.006 103.88 98.8987 104.16 98.684C104.44 98.4693 104.65 98.1987 104.79 97.872C104.93 97.536 105.005 97.1953 105.014 96.85C105.024 96.7007 105.028 96.5233 105.028 96.318C105.028 96.1033 105.024 95.9213 105.014 95.772C105.005 95.4453 104.926 95.1233 104.776 94.806C104.636 94.4887 104.422 94.2273 104.132 94.022C103.852 93.8167 103.488 93.714 103.04 93.714C102.564 93.714 102.186 93.8213 101.906 94.036C101.626 94.2413 101.426 94.5167 101.304 94.862C101.183 95.198 101.113 95.562 101.094 95.954C101.085 96.2247 101.085 96.4953 101.094 96.766C101.113 97.158 101.183 97.5267 101.304 97.872C101.426 98.208 101.626 98.4833 101.906 98.698C102.186 98.9033 102.564 99.006 103.04 99.006ZM115.176 100.14C114.364 100.14 113.683 100.019 113.132 99.776C112.581 99.524 112.157 99.202 111.858 98.81C111.569 98.4087 111.415 97.984 111.396 97.536C111.396 97.4613 111.424 97.396 111.48 97.34C111.545 97.2747 111.62 97.242 111.704 97.242H112.418C112.53 97.242 112.614 97.27 112.67 97.326C112.726 97.382 112.763 97.4473 112.782 97.522C112.829 97.746 112.941 97.97 113.118 98.194C113.305 98.4087 113.561 98.5907 113.888 98.74C114.224 98.88 114.653 98.95 115.176 98.95C115.979 98.95 116.567 98.81 116.94 98.53C117.323 98.2407 117.514 97.858 117.514 97.382C117.514 97.0553 117.411 96.794 117.206 96.598C117.01 96.3927 116.707 96.2107 116.296 96.052C115.885 95.8933 115.353 95.7207 114.7 95.534C114.019 95.338 113.454 95.1233 113.006 94.89C112.558 94.6567 112.222 94.3673 111.998 94.022C111.783 93.6767 111.676 93.238 111.676 92.706C111.676 92.202 111.811 91.754 112.082 91.362C112.353 90.9607 112.74 90.6433 113.244 90.41C113.757 90.1767 114.378 90.06 115.106 90.06C115.685 90.06 116.189 90.1393 116.618 90.298C117.057 90.4473 117.421 90.6527 117.71 90.914C117.999 91.166 118.219 91.4413 118.368 91.74C118.517 92.0293 118.597 92.314 118.606 92.594C118.606 92.6593 118.583 92.7247 118.536 92.79C118.489 92.846 118.415 92.874 118.312 92.874H117.57C117.505 92.874 117.435 92.8553 117.36 92.818C117.295 92.7807 117.243 92.7107 117.206 92.608C117.15 92.2253 116.935 91.9033 116.562 91.642C116.189 91.3807 115.703 91.25 115.106 91.25C114.499 91.25 114.005 91.3667 113.622 91.6C113.249 91.8333 113.062 92.1973 113.062 92.692C113.062 93.0093 113.151 93.2753 113.328 93.49C113.505 93.6953 113.785 93.8773 114.168 94.036C114.551 94.1947 115.05 94.3627 115.666 94.54C116.413 94.7453 117.024 94.9647 117.5 95.198C117.976 95.422 118.326 95.7067 118.55 96.052C118.783 96.388 118.9 96.822 118.9 97.354C118.9 97.942 118.746 98.446 118.438 98.866C118.13 99.2767 117.696 99.594 117.136 99.818C116.585 100.033 115.932 100.14 115.176 100.14ZM123.451 100.14C122.49 100.14 121.724 99.846 121.155 99.258C120.586 98.6607 120.273 97.8487 120.217 96.822C120.208 96.7007 120.203 96.5467 120.203 96.36C120.203 96.164 120.208 96.0053 120.217 95.884C120.254 95.2213 120.408 94.6427 120.679 94.148C120.95 93.644 121.318 93.2567 121.785 92.986C122.261 92.7153 122.816 92.58 123.451 92.58C124.16 92.58 124.753 92.7293 125.229 93.028C125.714 93.3267 126.083 93.7513 126.335 94.302C126.587 94.8527 126.713 95.4967 126.713 96.234V96.472C126.713 96.5747 126.68 96.654 126.615 96.71C126.559 96.766 126.484 96.794 126.391 96.794H121.547C121.547 96.8033 121.547 96.822 121.547 96.85C121.547 96.878 121.547 96.9013 121.547 96.92C121.566 97.3027 121.65 97.662 121.799 97.998C121.948 98.3247 122.163 98.5907 122.443 98.796C122.723 99.0013 123.059 99.104 123.451 99.104C123.787 99.104 124.067 99.0527 124.291 98.95C124.515 98.8473 124.697 98.7353 124.837 98.614C124.977 98.4833 125.07 98.3853 125.117 98.32C125.201 98.1987 125.266 98.1287 125.313 98.11C125.36 98.082 125.434 98.068 125.537 98.068H126.209C126.302 98.068 126.377 98.096 126.433 98.152C126.498 98.1987 126.526 98.2687 126.517 98.362C126.508 98.502 126.433 98.6747 126.293 98.88C126.153 99.076 125.952 99.272 125.691 99.468C125.43 99.664 125.112 99.8273 124.739 99.958C124.366 100.079 123.936 100.14 123.451 100.14ZM121.547 95.828H125.383V95.786C125.383 95.366 125.304 94.9927 125.145 94.666C124.996 94.3393 124.776 94.0827 124.487 93.896C124.198 93.7 123.852 93.602 123.451 93.602C123.05 93.602 122.704 93.7 122.415 93.896C122.135 94.0827 121.92 94.3393 121.771 94.666C121.622 94.9927 121.547 95.366 121.547 95.786V95.828ZM128.723 100C128.63 100 128.55 99.972 128.485 99.916C128.429 99.8507 128.401 99.7713 128.401 99.678V90.382C128.401 90.2887 128.429 90.214 128.485 90.158C128.55 90.0927 128.63 90.06 128.723 90.06H129.381C129.484 90.06 129.563 90.0927 129.619 90.158C129.675 90.214 129.703 90.2887 129.703 90.382V99.678C129.703 99.7713 129.675 99.8507 129.619 99.916C129.563 99.972 129.484 100 129.381 100H128.723ZM134.689 100.14C133.728 100.14 132.963 99.846 132.393 99.258C131.824 98.6607 131.511 97.8487 131.455 96.822C131.446 96.7007 131.441 96.5467 131.441 96.36C131.441 96.164 131.446 96.0053 131.455 95.884C131.493 95.2213 131.647 94.6427 131.917 94.148C132.188 93.644 132.557 93.2567 133.023 92.986C133.499 92.7153 134.055 92.58 134.689 92.58C135.399 92.58 135.991 92.7293 136.467 93.028C136.953 93.3267 137.321 93.7513 137.573 94.302C137.825 94.8527 137.951 95.4967 137.951 96.234V96.472C137.951 96.5747 137.919 96.654 137.853 96.71C137.797 96.766 137.723 96.794 137.629 96.794H132.785C132.785 96.8033 132.785 96.822 132.785 96.85C132.785 96.878 132.785 96.9013 132.785 96.92C132.804 97.3027 132.888 97.662 133.037 97.998C133.187 98.3247 133.401 98.5907 133.681 98.796C133.961 99.0013 134.297 99.104 134.689 99.104C135.025 99.104 135.305 99.0527 135.529 98.95C135.753 98.8473 135.935 98.7353 136.075 98.614C136.215 98.4833 136.309 98.3853 136.355 98.32C136.439 98.1987 136.505 98.1287 136.551 98.11C136.598 98.082 136.673 98.068 136.775 98.068H137.447C137.541 98.068 137.615 98.096 137.671 98.152C137.737 98.1987 137.765 98.2687 137.755 98.362C137.746 98.502 137.671 98.6747 137.531 98.88C137.391 99.076 137.191 99.272 136.929 99.468C136.668 99.664 136.351 99.8273 135.977 99.958C135.604 100.079 135.175 100.14 134.689 100.14ZM132.785 95.828H136.621V95.786C136.621 95.366 136.542 94.9927 136.383 94.666C136.234 94.3393 136.015 94.0827 135.725 93.896C135.436 93.7 135.091 93.602 134.689 93.602C134.288 93.602 133.943 93.7 133.653 93.896C133.373 94.0827 133.159 94.3393 133.009 94.666C132.86 94.9927 132.785 95.366 132.785 95.786V95.828ZM142.565 100.14C141.903 100.14 141.329 100.014 140.843 99.762C140.367 99.5007 139.999 99.132 139.737 98.656C139.476 98.1707 139.336 97.592 139.317 96.92C139.308 96.78 139.303 96.5933 139.303 96.36C139.303 96.1267 139.308 95.94 139.317 95.8C139.336 95.128 139.476 94.554 139.737 94.078C139.999 93.5927 140.367 93.224 140.843 92.972C141.329 92.7107 141.903 92.58 142.565 92.58C143.107 92.58 143.569 92.6547 143.951 92.804C144.343 92.9533 144.665 93.1447 144.917 93.378C145.169 93.6113 145.356 93.8633 145.477 94.134C145.608 94.4047 145.678 94.6613 145.687 94.904C145.697 94.9973 145.669 95.072 145.603 95.128C145.538 95.184 145.459 95.212 145.365 95.212H144.693C144.6 95.212 144.53 95.1933 144.483 95.156C144.437 95.1093 144.39 95.0347 144.343 94.932C144.175 94.4747 143.947 94.1527 143.657 93.966C143.368 93.7793 143.009 93.686 142.579 93.686C142.019 93.686 141.562 93.8587 141.207 94.204C140.862 94.5493 140.675 95.1047 140.647 95.87C140.638 96.206 140.638 96.5327 140.647 96.85C140.675 97.6247 140.862 98.1847 141.207 98.53C141.562 98.866 142.019 99.034 142.579 99.034C143.009 99.034 143.368 98.9407 143.657 98.754C143.947 98.5673 144.175 98.2453 144.343 97.788C144.39 97.6853 144.437 97.6153 144.483 97.578C144.53 97.5313 144.6 97.508 144.693 97.508H145.365C145.459 97.508 145.538 97.536 145.603 97.592C145.669 97.648 145.697 97.7227 145.687 97.816C145.678 98.012 145.636 98.2127 145.561 98.418C145.487 98.6233 145.365 98.8333 145.197 99.048C145.039 99.2533 144.838 99.44 144.595 99.608C144.353 99.7667 144.059 99.8973 143.713 100C143.377 100.093 142.995 100.14 142.565 100.14ZM150.192 100C149.669 100 149.245 99.902 148.918 99.706C148.591 99.5007 148.353 99.216 148.204 98.852C148.055 98.4787 147.98 98.04 147.98 97.536V93.84H146.888C146.795 93.84 146.715 93.812 146.65 93.756C146.594 93.6907 146.566 93.6113 146.566 93.518V93.042C146.566 92.9487 146.594 92.874 146.65 92.818C146.715 92.7527 146.795 92.72 146.888 92.72H147.98V90.382C147.98 90.2887 148.008 90.214 148.064 90.158C148.129 90.0927 148.209 90.06 148.302 90.06H148.96C149.053 90.06 149.128 90.0927 149.184 90.158C149.249 90.214 149.282 90.2887 149.282 90.382V92.72H151.018C151.111 92.72 151.186 92.7527 151.242 92.818C151.307 92.874 151.34 92.9487 151.34 93.042V93.518C151.34 93.6113 151.307 93.6907 151.242 93.756C151.186 93.812 151.111 93.84 151.018 93.84H149.282V97.438C149.282 97.8767 149.357 98.222 149.506 98.474C149.655 98.726 149.921 98.852 150.304 98.852H151.158C151.251 98.852 151.326 98.8847 151.382 98.95C151.447 99.006 151.48 99.0807 151.48 99.174V99.678C151.48 99.7713 151.447 99.8507 151.382 99.916C151.326 99.972 151.251 100 151.158 100H150.192ZM159.582 100.14C158.77 100.14 158.089 100.019 157.538 99.776C156.988 99.524 156.563 99.202 156.264 98.81C155.975 98.4087 155.821 97.984 155.802 97.536C155.802 97.4613 155.83 97.396 155.886 97.34C155.952 97.2747 156.026 97.242 156.11 97.242H156.824C156.936 97.242 157.02 97.27 157.076 97.326C157.132 97.382 157.17 97.4473 157.188 97.522C157.235 97.746 157.347 97.97 157.524 98.194C157.711 98.4087 157.968 98.5907 158.294 98.74C158.63 98.88 159.06 98.95 159.582 98.95C160.385 98.95 160.973 98.81 161.346 98.53C161.729 98.2407 161.92 97.858 161.92 97.382C161.92 97.0553 161.818 96.794 161.612 96.598C161.416 96.3927 161.113 96.2107 160.702 96.052C160.292 95.8933 159.76 95.7207 159.106 95.534C158.425 95.338 157.86 95.1233 157.412 94.89C156.964 94.6567 156.628 94.3673 156.404 94.022C156.19 93.6767 156.082 93.238 156.082 92.706C156.082 92.202 156.218 91.754 156.488 91.362C156.759 90.9607 157.146 90.6433 157.65 90.41C158.164 90.1767 158.784 90.06 159.512 90.06C160.091 90.06 160.595 90.1393 161.024 90.298C161.463 90.4473 161.827 90.6527 162.116 90.914C162.406 91.166 162.625 91.4413 162.774 91.74C162.924 92.0293 163.003 92.314 163.012 92.594C163.012 92.6593 162.989 92.7247 162.942 92.79C162.896 92.846 162.821 92.874 162.718 92.874H161.976C161.911 92.874 161.841 92.8553 161.766 92.818C161.701 92.7807 161.65 92.7107 161.612 92.608C161.556 92.2253 161.342 91.9033 160.968 91.642C160.595 91.3807 160.11 91.25 159.512 91.25C158.906 91.25 158.411 91.3667 158.028 91.6C157.655 91.8333 157.468 92.1973 157.468 92.692C157.468 93.0093 157.557 93.2753 157.734 93.49C157.912 93.6953 158.192 93.8773 158.574 94.036C158.957 94.1947 159.456 94.3627 160.072 94.54C160.819 94.7453 161.43 94.9647 161.906 95.198C162.382 95.422 162.732 95.7067 162.956 96.052C163.19 96.388 163.306 96.822 163.306 97.354C163.306 97.942 163.152 98.446 162.844 98.866C162.536 99.2767 162.102 99.594 161.542 99.818C160.992 100.033 160.338 100.14 159.582 100.14ZM167.857 100.14C166.896 100.14 166.131 99.846 165.561 99.258C164.992 98.6607 164.679 97.8487 164.623 96.822C164.614 96.7007 164.609 96.5467 164.609 96.36C164.609 96.164 164.614 96.0053 164.623 95.884C164.661 95.2213 164.815 94.6427 165.085 94.148C165.356 93.644 165.725 93.2567 166.191 92.986C166.667 92.7153 167.223 92.58 167.857 92.58C168.567 92.58 169.159 92.7293 169.635 93.028C170.121 93.3267 170.489 93.7513 170.741 94.302C170.993 94.8527 171.119 95.4967 171.119 96.234V96.472C171.119 96.5747 171.087 96.654 171.021 96.71C170.965 96.766 170.891 96.794 170.797 96.794H165.953C165.953 96.8033 165.953 96.822 165.953 96.85C165.953 96.878 165.953 96.9013 165.953 96.92C165.972 97.3027 166.056 97.662 166.205 97.998C166.355 98.3247 166.569 98.5907 166.849 98.796C167.129 99.0013 167.465 99.104 167.857 99.104C168.193 99.104 168.473 99.0527 168.697 98.95C168.921 98.8473 169.103 98.7353 169.243 98.614C169.383 98.4833 169.477 98.3853 169.523 98.32C169.607 98.1987 169.673 98.1287 169.719 98.11C169.766 98.082 169.841 98.068 169.943 98.068H170.615C170.709 98.068 170.783 98.096 170.839 98.152C170.905 98.1987 170.933 98.2687 170.923 98.362C170.914 98.502 170.839 98.6747 170.699 98.88C170.559 99.076 170.359 99.272 170.097 99.468C169.836 99.664 169.519 99.8273 169.145 99.958C168.772 100.079 168.343 100.14 167.857 100.14ZM165.953 95.828H169.789V95.786C169.789 95.366 169.71 94.9927 169.551 94.666C169.402 94.3393 169.183 94.0827 168.893 93.896C168.604 93.7 168.259 93.602 167.857 93.602C167.456 93.602 167.111 93.7 166.821 93.896C166.541 94.0827 166.327 94.3393 166.177 94.666C166.028 94.9927 165.953 95.366 165.953 95.786V95.828ZM173.115 100C173.022 100 172.943 99.972 172.877 99.916C172.821 99.8507 172.793 99.7713 172.793 99.678V93.056C172.793 92.9627 172.821 92.8833 172.877 92.818C172.943 92.7527 173.022 92.72 173.115 92.72H173.759C173.853 92.72 173.932 92.7527 173.997 92.818C174.063 92.8833 174.095 92.9627 174.095 93.056V93.672C174.282 93.3547 174.539 93.1167 174.865 92.958C175.192 92.7993 175.584 92.72 176.041 92.72H176.601C176.695 92.72 176.769 92.7527 176.825 92.818C176.881 92.874 176.909 92.9487 176.909 93.042V93.616C176.909 93.7093 176.881 93.784 176.825 93.84C176.769 93.896 176.695 93.924 176.601 93.924H175.761C175.257 93.924 174.861 94.0733 174.571 94.372C174.282 94.6613 174.137 95.058 174.137 95.562V99.678C174.137 99.7713 174.105 99.8507 174.039 99.916C173.974 99.972 173.895 100 173.801 100H173.115ZM180.646 100C180.506 100 180.394 99.9673 180.31 99.902C180.235 99.8367 180.174 99.7527 180.128 99.65L177.538 93.154C177.519 93.1073 177.51 93.0607 177.51 93.014C177.51 92.93 177.538 92.86 177.594 92.804C177.65 92.748 177.72 92.72 177.804 92.72H178.476C178.578 92.72 178.658 92.748 178.714 92.804C178.77 92.86 178.802 92.9113 178.812 92.958L180.954 98.474L183.082 92.958C183.1 92.9113 183.133 92.86 183.18 92.804C183.236 92.748 183.315 92.72 183.418 92.72H184.104C184.178 92.72 184.244 92.748 184.3 92.804C184.365 92.86 184.398 92.93 184.398 93.014C184.398 93.0607 184.388 93.1073 184.37 93.154L181.766 99.65C181.728 99.7527 181.668 99.8367 181.584 99.902C181.509 99.9673 181.397 100 181.248 100H180.646ZM186.186 100C186.092 100 186.013 99.972 185.948 99.916C185.892 99.8507 185.864 99.7713 185.864 99.678V93.042C185.864 92.9487 185.892 92.874 185.948 92.818C186.013 92.7527 186.092 92.72 186.186 92.72H186.858C186.951 92.72 187.026 92.7527 187.082 92.818C187.138 92.874 187.166 92.9487 187.166 93.042V99.678C187.166 99.7713 187.138 99.8507 187.082 99.916C187.026 99.972 186.951 100 186.858 100H186.186ZM186.074 91.362C185.98 91.362 185.901 91.334 185.836 91.278C185.78 91.2127 185.752 91.1333 185.752 91.04V90.284C185.752 90.1907 185.78 90.116 185.836 90.06C185.901 89.9947 185.98 89.962 186.074 89.962H186.956C187.049 89.962 187.124 89.9947 187.18 90.06C187.245 90.116 187.278 90.1907 187.278 90.284V91.04C187.278 91.1333 187.245 91.2127 187.18 91.278C187.124 91.334 187.049 91.362 186.956 91.362H186.074ZM192.222 100.14C191.559 100.14 190.985 100.014 190.5 99.762C190.024 99.5007 189.655 99.132 189.394 98.656C189.132 98.1707 188.992 97.592 188.974 96.92C188.964 96.78 188.96 96.5933 188.96 96.36C188.96 96.1267 188.964 95.94 188.974 95.8C188.992 95.128 189.132 94.554 189.394 94.078C189.655 93.5927 190.024 93.224 190.5 92.972C190.985 92.7107 191.559 92.58 192.222 92.58C192.763 92.58 193.225 92.6547 193.608 92.804C194 92.9533 194.322 93.1447 194.574 93.378C194.826 93.6113 195.012 93.8633 195.134 94.134C195.264 94.4047 195.334 94.6613 195.344 94.904C195.353 94.9973 195.325 95.072 195.26 95.128C195.194 95.184 195.115 95.212 195.022 95.212H194.35C194.256 95.212 194.186 95.1933 194.14 95.156C194.093 95.1093 194.046 95.0347 194 94.932C193.832 94.4747 193.603 94.1527 193.314 93.966C193.024 93.7793 192.665 93.686 192.236 93.686C191.676 93.686 191.218 93.8587 190.864 94.204C190.518 94.5493 190.332 95.1047 190.304 95.87C190.294 96.206 190.294 96.5327 190.304 96.85C190.332 97.6247 190.518 98.1847 190.864 98.53C191.218 98.866 191.676 99.034 192.236 99.034C192.665 99.034 193.024 98.9407 193.314 98.754C193.603 98.5673 193.832 98.2453 194 97.788C194.046 97.6853 194.093 97.6153 194.14 97.578C194.186 97.5313 194.256 97.508 194.35 97.508H195.022C195.115 97.508 195.194 97.536 195.26 97.592C195.325 97.648 195.353 97.7227 195.344 97.816C195.334 98.012 195.292 98.2127 195.218 98.418C195.143 98.6233 195.022 98.8333 194.854 99.048C194.695 99.2533 194.494 99.44 194.252 99.608C194.009 99.7667 193.715 99.8973 193.37 100C193.034 100.093 192.651 100.14 192.222 100.14ZM199.904 100.14C198.943 100.14 198.178 99.846 197.608 99.258C197.039 98.6607 196.726 97.8487 196.67 96.822C196.661 96.7007 196.656 96.5467 196.656 96.36C196.656 96.164 196.661 96.0053 196.67 95.884C196.708 95.2213 196.862 94.6427 197.132 94.148C197.403 93.644 197.772 93.2567 198.238 92.986C198.714 92.7153 199.27 92.58 199.904 92.58C200.614 92.58 201.206 92.7293 201.682 93.028C202.168 93.3267 202.536 93.7513 202.788 94.302C203.04 94.8527 203.166 95.4967 203.166 96.234V96.472C203.166 96.5747 203.134 96.654 203.068 96.71C203.012 96.766 202.938 96.794 202.844 96.794H198C198 96.8033 198 96.822 198 96.85C198 96.878 198 96.9013 198 96.92C198.019 97.3027 198.103 97.662 198.252 97.998C198.402 98.3247 198.616 98.5907 198.896 98.796C199.176 99.0013 199.512 99.104 199.904 99.104C200.24 99.104 200.52 99.0527 200.744 98.95C200.968 98.8473 201.15 98.7353 201.29 98.614C201.43 98.4833 201.524 98.3853 201.57 98.32C201.654 98.1987 201.72 98.1287 201.766 98.11C201.813 98.082 201.888 98.068 201.99 98.068H202.662C202.756 98.068 202.83 98.096 202.886 98.152C202.952 98.1987 202.98 98.2687 202.97 98.362C202.961 98.502 202.886 98.6747 202.746 98.88C202.606 99.076 202.406 99.272 202.144 99.468C201.883 99.664 201.566 99.8273 201.192 99.958C200.819 100.079 200.39 100.14 199.904 100.14ZM198 95.828H201.836V95.786C201.836 95.366 201.757 94.9927 201.598 94.666C201.449 94.3393 201.23 94.0827 200.94 93.896C200.651 93.7 200.306 93.602 199.904 93.602C199.503 93.602 199.158 93.7 198.868 93.896C198.588 94.0827 198.374 94.3393 198.224 94.666C198.075 94.9927 198 95.366 198 95.786V95.828ZM207.36 100.14C206.838 100.14 206.39 100.075 206.016 99.944C205.643 99.8133 205.34 99.6547 205.106 99.468C204.873 99.2813 204.696 99.0947 204.574 98.908C204.462 98.7213 204.402 98.572 204.392 98.46C204.383 98.3573 204.416 98.278 204.49 98.222C204.565 98.166 204.64 98.138 204.714 98.138H205.33C205.386 98.138 205.428 98.1473 205.456 98.166C205.494 98.1753 205.54 98.2127 205.596 98.278C205.718 98.4087 205.853 98.5393 206.002 98.67C206.152 98.8007 206.334 98.908 206.548 98.992C206.772 99.076 207.048 99.118 207.374 99.118C207.85 99.118 208.242 99.0293 208.55 98.852C208.858 98.6653 209.012 98.3947 209.012 98.04C209.012 97.8067 208.947 97.62 208.816 97.48C208.695 97.34 208.471 97.214 208.144 97.102C207.827 96.99 207.388 96.8733 206.828 96.752C206.268 96.6213 205.825 96.4627 205.498 96.276C205.172 96.08 204.938 95.8513 204.798 95.59C204.658 95.3193 204.588 95.016 204.588 94.68C204.588 94.3347 204.691 94.0033 204.896 93.686C205.102 93.3593 205.4 93.0933 205.792 92.888C206.194 92.6827 206.693 92.58 207.29 92.58C207.776 92.58 208.191 92.6407 208.536 92.762C208.882 92.8833 209.166 93.0373 209.39 93.224C209.614 93.4013 209.782 93.5787 209.894 93.756C210.006 93.9333 210.067 94.0827 210.076 94.204C210.086 94.2973 210.058 94.3767 209.992 94.442C209.927 94.498 209.852 94.526 209.768 94.526H209.18C209.115 94.526 209.059 94.512 209.012 94.484C208.975 94.456 208.938 94.4233 208.9 94.386C208.807 94.2647 208.695 94.1433 208.564 94.022C208.443 93.9007 208.28 93.8027 208.074 93.728C207.878 93.644 207.617 93.602 207.29 93.602C206.824 93.602 206.474 93.7 206.24 93.896C206.007 94.092 205.89 94.3393 205.89 94.638C205.89 94.8153 205.942 94.974 206.044 95.114C206.147 95.254 206.343 95.38 206.632 95.492C206.922 95.604 207.351 95.7253 207.92 95.856C208.536 95.9773 209.022 96.1407 209.376 96.346C209.731 96.5513 209.983 96.7893 210.132 97.06C210.282 97.3307 210.356 97.6433 210.356 97.998C210.356 98.39 210.24 98.7493 210.006 99.076C209.782 99.4027 209.446 99.664 208.998 99.86C208.56 100.047 208.014 100.14 207.36 100.14Z" fill="#4F5665"/>
<path d="M10.486 99.7299C10.3547 99.7302 10.2247 99.7045 10.1034 99.6544C9.98204 99.6043 9.87181 99.5307 9.77899 99.4379L5.53699 95.1949C5.44141 95.1027 5.36516 94.9924 5.31266 94.8705C5.26017 94.7485 5.23249 94.6173 5.23125 94.4845C5.23 94.3517 5.25521 94.22 5.3054 94.0971C5.3556 93.9742 5.42977 93.8625 5.52359 93.7685C5.61742 93.6746 5.72902 93.6002 5.85188 93.5499C5.97474 93.4995 6.1064 93.4741 6.23918 93.4752C6.37195 93.4762 6.50319 93.5037 6.62523 93.556C6.74727 93.6083 6.85767 93.6845 6.94999 93.7799L10.485 97.3149L16.85 90.9519C17.0375 90.7643 17.2919 90.6588 17.5571 90.6587C17.8224 90.6586 18.0768 90.7639 18.2645 90.9514C18.4521 91.1389 18.5576 91.3933 18.5577 91.6585C18.5578 91.9238 18.4525 92.1783 18.265 92.3659L11.193 99.4379C11.1002 99.5307 10.9899 99.6043 10.8686 99.6544C10.7473 99.7045 10.6173 99.7302 10.486 99.7299Z" fill="#2FAB73"/>
<path d="M48.4043 20C48.311 20 48.2316 19.972 48.1663 19.916C48.1103 19.8507 48.0823 19.7713 48.0823 19.678V11.838L45.7583 13.63C45.6836 13.686 45.6043 13.7093 45.5203 13.7C45.4363 13.6907 45.3663 13.6487 45.3103 13.574L44.9463 13.112C44.8903 13.028 44.8669 12.944 44.8763 12.86C44.8949 12.776 44.9416 12.706 45.0163 12.65L48.0683 10.298C48.1336 10.2513 48.1943 10.2233 48.2503 10.214C48.3063 10.2047 48.367 10.2 48.4323 10.2H49.1463C49.2396 10.2 49.3143 10.2327 49.3703 10.298C49.4263 10.354 49.4543 10.4287 49.4543 10.522V19.678C49.4543 19.7713 49.4263 19.8507 49.3703 19.916C49.3143 19.972 49.2396 20 49.1463 20H48.4043ZM58.8742 20.14C58.0902 20.14 57.4135 20 56.8442 19.72C56.2842 19.44 55.8502 19.0153 55.5422 18.446C55.2435 17.8673 55.0942 17.1253 55.0942 16.22V10.536C55.0942 10.4333 55.1222 10.354 55.1782 10.298C55.2342 10.2327 55.3135 10.2 55.4162 10.2H56.1302C56.2329 10.2 56.3122 10.2327 56.3682 10.298C56.4335 10.354 56.4662 10.4333 56.4662 10.536V16.248C56.4662 17.1627 56.6809 17.8393 57.1102 18.278C57.5395 18.7167 58.1275 18.936 58.8742 18.936C59.6115 18.936 60.1949 18.7167 60.6242 18.278C61.0629 17.8393 61.2822 17.1627 61.2822 16.248V10.536C61.2822 10.4333 61.3102 10.354 61.3662 10.298C61.4315 10.2327 61.5109 10.2 61.6042 10.2H62.3322C62.4255 10.2 62.5002 10.2327 62.5562 10.298C62.6215 10.354 62.6542 10.4333 62.6542 10.536V16.22C62.6542 17.1253 62.5002 17.8673 62.1922 18.446C61.8935 19.0153 61.4642 19.44 60.9042 19.72C60.3442 20 59.6675 20.14 58.8742 20.14ZM67.2779 20.14C66.7553 20.14 66.3073 20.0747 65.9339 19.944C65.5606 19.8133 65.2573 19.6547 65.0239 19.468C64.7906 19.2813 64.6133 19.0947 64.4919 18.908C64.3799 18.7213 64.3193 18.572 64.3099 18.46C64.3006 18.3573 64.3333 18.278 64.4079 18.222C64.4826 18.166 64.5573 18.138 64.6319 18.138H65.2479C65.3039 18.138 65.3459 18.1473 65.3739 18.166C65.4113 18.1753 65.4579 18.2127 65.5139 18.278C65.6353 18.4087 65.7706 18.5393 65.9199 18.67C66.0693 18.8007 66.2513 18.908 66.4659 18.992C66.6899 19.076 66.9653 19.118 67.2919 19.118C67.7679 19.118 68.1599 19.0293 68.4679 18.852C68.7759 18.6653 68.9299 18.3947 68.9299 18.04C68.9299 17.8067 68.8646 17.62 68.7339 17.48C68.6126 17.34 68.3886 17.214 68.0619 17.102C67.7446 16.99 67.3059 16.8733 66.7459 16.752C66.1859 16.6213 65.7426 16.4627 65.4159 16.276C65.0893 16.08 64.8559 15.8513 64.7159 15.59C64.5759 15.3193 64.5059 15.016 64.5059 14.68C64.5059 14.3347 64.6086 14.0033 64.8139 13.686C65.0193 13.3593 65.3179 13.0933 65.7099 12.888C66.1113 12.6827 66.6106 12.58 67.2079 12.58C67.6933 12.58 68.1086 12.6407 68.4539 12.762C68.7993 12.8833 69.0839 13.0373 69.3079 13.224C69.5319 13.4013 69.6999 13.5787 69.8119 13.756C69.9239 13.9333 69.9846 14.0827 69.9939 14.204C70.0033 14.2973 69.9753 14.3767 69.9099 14.442C69.8446 14.498 69.7699 14.526 69.6859 14.526H69.0979C69.0326 14.526 68.9766 14.512 68.9299 14.484C68.8926 14.456 68.8553 14.4233 68.8179 14.386C68.7246 14.2647 68.6126 14.1433 68.4819 14.022C68.3606 13.9007 68.1973 13.8027 67.9919 13.728C67.7959 13.644 67.5346 13.602 67.2079 13.602C66.7413 13.602 66.3913 13.7 66.1579 13.896C65.9246 14.092 65.8079 14.3393 65.8079 14.638C65.8079 14.8153 65.8593 14.974 65.9619 15.114C66.0646 15.254 66.2606 15.38 66.5499 15.492C66.8393 15.604 67.2686 15.7253 67.8379 15.856C68.4539 15.9773 68.9393 16.1407 69.2939 16.346C69.6486 16.5513 69.9006 16.7893 70.0499 17.06C70.1993 17.3307 70.2739 17.6433 70.2739 17.998C70.2739 18.39 70.1573 18.7493 69.9239 19.076C69.6999 19.4027 69.3639 19.664 68.9159 19.86C68.4773 20.0467 67.9313 20.14 67.2779 20.14ZM74.7926 20.14C73.8313 20.14 73.066 19.846 72.4966 19.258C71.9273 18.6607 71.6146 17.8487 71.5586 16.822C71.5493 16.7007 71.5446 16.5467 71.5446 16.36C71.5446 16.164 71.5493 16.0053 71.5586 15.884C71.596 15.2213 71.75 14.6427 72.0206 14.148C72.2913 13.644 72.66 13.2567 73.1266 12.986C73.6026 12.7153 74.158 12.58 74.7926 12.58C75.502 12.58 76.0946 12.7293 76.5706 13.028C77.056 13.3267 77.4246 13.7513 77.6766 14.302C77.9286 14.8527 78.0546 15.4967 78.0546 16.234V16.472C78.0546 16.5747 78.022 16.654 77.9566 16.71C77.9006 16.766 77.826 16.794 77.7326 16.794H72.8886C72.8886 16.8033 72.8886 16.822 72.8886 16.85C72.8886 16.878 72.8886 16.9013 72.8886 16.92C72.9073 17.3027 72.9913 17.662 73.1406 17.998C73.29 18.3247 73.5046 18.5907 73.7846 18.796C74.0646 19.0013 74.4006 19.104 74.7926 19.104C75.1286 19.104 75.4086 19.0527 75.6326 18.95C75.8566 18.8473 76.0386 18.7353 76.1786 18.614C76.3186 18.4833 76.412 18.3853 76.4586 18.32C76.5426 18.1987 76.608 18.1287 76.6546 18.11C76.7013 18.082 76.776 18.068 76.8786 18.068H77.5506C77.644 18.068 77.7186 18.096 77.7746 18.152C77.84 18.1987 77.868 18.2687 77.8586 18.362C77.8493 18.502 77.7746 18.6747 77.6346 18.88C77.4946 19.076 77.294 19.272 77.0326 19.468C76.7713 19.664 76.454 19.8273 76.0806 19.958C75.7073 20.0793 75.278 20.14 74.7926 20.14ZM72.8886 15.828H76.7246V15.786C76.7246 15.366 76.6453 14.9927 76.4866 14.666C76.3373 14.3393 76.118 14.0827 75.8286 13.896C75.5393 13.7 75.194 13.602 74.7926 13.602C74.3913 13.602 74.046 13.7 73.7566 13.896C73.4766 14.0827 73.262 14.3393 73.1126 14.666C72.9633 14.9927 72.8886 15.366 72.8886 15.786V15.828ZM80.0506 20C79.9573 20 79.878 19.972 79.8126 19.916C79.7566 19.8507 79.7286 19.7713 79.7286 19.678V13.056C79.7286 12.9627 79.7566 12.8833 79.8126 12.818C79.878 12.7527 79.9573 12.72 80.0506 12.72H80.6946C80.788 12.72 80.8673 12.7527 80.9326 12.818C80.998 12.8833 81.0306 12.9627 81.0306 13.056V13.672C81.2173 13.3547 81.474 13.1167 81.8006 12.958C82.1273 12.7993 82.5193 12.72 82.9766 12.72H83.5366C83.63 12.72 83.7046 12.7527 83.7606 12.818C83.8166 12.874 83.8446 12.9487 83.8446 13.042V13.616C83.8446 13.7093 83.8166 13.784 83.7606 13.84C83.7046 13.896 83.63 13.924 83.5366 13.924H82.6966C82.1926 13.924 81.796 14.0733 81.5066 14.372C81.2173 14.6613 81.0726 15.058 81.0726 15.562V19.678C81.0726 19.7713 81.04 19.8507 80.9746 19.916C80.9093 19.972 80.83 20 80.7366 20H80.0506Z" fill="#4F5665"/>
<path d="M10.6662 19.7299C10.5349 19.7302 10.4049 19.7045 10.2835 19.6544C10.1622 19.6043 10.052 19.5307 9.95916 19.4379L5.71716 15.1949C5.62159 15.1027 5.54533 14.9924 5.49284 14.8705C5.44035 14.7485 5.41267 14.6173 5.41142 14.4845C5.41017 14.3517 5.43538 14.22 5.48558 14.0971C5.53577 13.9742 5.60994 13.8625 5.70377 13.7685C5.7976 13.6746 5.90919 13.6002 6.03205 13.5499C6.15491 13.4995 6.28657 13.4741 6.41935 13.4752C6.55213 13.4762 6.68337 13.5037 6.80541 13.556C6.92745 13.6083 7.03785 13.6845 7.13016 13.7799L10.6652 17.3149L17.0302 10.9519C17.2177 10.7643 17.472 10.6588 17.7373 10.6587C18.0026 10.6586 18.257 10.7639 18.4447 10.9514C18.6323 11.1389 18.7378 11.3933 18.7379 11.6585C18.738 11.9238 18.6327 12.1783 18.4452 12.3659L11.3732 19.4379C11.2803 19.5307 11.1701 19.6043 11.0488 19.6544C10.9275 19.7045 10.7974 19.7302 10.6662 19.7299Z" fill="#2FAB73"/>
</svg>
