<svg width="212" height="150" viewBox="0 0 212 150" fill="none" xmlns="http://www.w3.org/2000/svg">
<path d="M46.0805 60C45.9779 60 45.8985 59.972 45.8425 59.916C45.7865 59.8507 45.7585 59.7713 45.7585 59.678V50.536C45.7585 50.4333 45.7865 50.354 45.8425 50.298C45.8985 50.2327 45.9779 50.2 46.0805 50.2H49.9165C50.6165 50.2 51.1859 50.3167 51.6245 50.55C52.0725 50.774 52.3992 51.082 52.6045 51.474C52.8192 51.866 52.9265 52.3047 52.9265 52.79C52.9265 53.1727 52.8612 53.504 52.7305 53.784C52.6092 54.0547 52.4552 54.2787 52.2685 54.456C52.0819 54.624 51.8999 54.7547 51.7225 54.848C52.0865 55.0253 52.4085 55.3147 52.6885 55.716C52.9779 56.1173 53.1225 56.6027 53.1225 57.172C53.1225 57.6853 53.0059 58.1567 52.7725 58.586C52.5392 59.0153 52.1892 59.3607 51.7225 59.622C51.2652 59.874 50.6959 60 50.0145 60H46.0805ZM47.1305 58.866H49.8325C50.4392 58.866 50.9059 58.7027 51.2325 58.376C51.5592 58.0493 51.7225 57.648 51.7225 57.172C51.7225 56.6773 51.5592 56.2713 51.2325 55.954C50.9059 55.6273 50.4392 55.464 49.8325 55.464H47.1305V58.866ZM47.1305 54.344H49.7065C50.3039 54.344 50.7565 54.2087 51.0645 53.938C51.3725 53.658 51.5265 53.28 51.5265 52.804C51.5265 52.328 51.3725 51.964 51.0645 51.712C50.7565 51.46 50.3039 51.334 49.7065 51.334H47.1305V54.344ZM56.9581 60.14C56.4914 60.14 56.0668 60.0467 55.6841 59.86C55.3014 59.6733 54.9934 59.4213 54.7601 59.104C54.5268 58.7867 54.4101 58.4273 54.4101 58.026C54.4101 57.382 54.6714 56.8687 55.1941 56.486C55.7168 56.1033 56.3981 55.8513 57.2381 55.73L59.3241 55.436V55.03C59.3241 54.582 59.1934 54.232 58.9321 53.98C58.6801 53.728 58.2648 53.602 57.6861 53.602C57.2661 53.602 56.9254 53.686 56.6641 53.854C56.4121 54.022 56.2348 54.2367 56.1321 54.498C56.0761 54.638 55.9781 54.708 55.8381 54.708H55.2081C55.1054 54.708 55.0261 54.68 54.9701 54.624C54.9234 54.5587 54.9001 54.484 54.9001 54.4C54.9001 54.26 54.9514 54.0873 55.0541 53.882C55.1661 53.6767 55.3341 53.476 55.5581 53.28C55.7821 53.084 56.0668 52.9207 56.4121 52.79C56.7668 52.65 57.1961 52.58 57.7001 52.58C58.2601 52.58 58.7314 52.6547 59.1141 52.804C59.4968 52.944 59.7954 53.1353 60.0101 53.378C60.2341 53.6207 60.3928 53.896 60.4861 54.204C60.5888 54.512 60.6401 54.8247 60.6401 55.142V59.678C60.6401 59.7713 60.6074 59.8507 60.5421 59.916C60.4861 59.972 60.4114 60 60.3181 60H59.6741C59.5714 60 59.4921 59.972 59.4361 59.916C59.3801 59.8507 59.3521 59.7713 59.3521 59.678V59.076C59.2308 59.244 59.0674 59.412 58.8621 59.58C58.6568 59.7387 58.4001 59.874 58.0921 59.986C57.7841 60.0887 57.4061 60.14 56.9581 60.14ZM57.2521 59.09C57.6348 59.09 57.9848 59.0107 58.3021 58.852C58.6194 58.684 58.8668 58.4273 59.0441 58.082C59.2308 57.7367 59.3241 57.3027 59.3241 56.78V56.388L57.7001 56.626C57.0374 56.7193 56.5381 56.878 56.2021 57.102C55.8661 57.3167 55.6981 57.592 55.6981 57.928C55.6981 58.1893 55.7728 58.4087 55.9221 58.586C56.0808 58.754 56.2768 58.88 56.5101 58.964C56.7528 59.048 57.0001 59.09 57.2521 59.09ZM65.1727 60.14C64.65 60.14 64.202 60.0747 63.8287 59.944C63.4554 59.8133 63.152 59.6547 62.9187 59.468C62.6854 59.2813 62.508 59.0947 62.3867 58.908C62.2747 58.7213 62.214 58.572 62.2047 58.46C62.1954 58.3573 62.228 58.278 62.3027 58.222C62.3774 58.166 62.452 58.138 62.5267 58.138H63.1427C63.1987 58.138 63.2407 58.1473 63.2687 58.166C63.306 58.1753 63.3527 58.2127 63.4087 58.278C63.53 58.4087 63.6654 58.5393 63.8147 58.67C63.964 58.8007 64.146 58.908 64.3607 58.992C64.5847 59.076 64.86 59.118 65.1867 59.118C65.6627 59.118 66.0547 59.0293 66.3627 58.852C66.6707 58.6653 66.8247 58.3947 66.8247 58.04C66.8247 57.8067 66.7594 57.62 66.6287 57.48C66.5074 57.34 66.2834 57.214 65.9567 57.102C65.6394 56.99 65.2007 56.8733 64.6407 56.752C64.0807 56.6213 63.6374 56.4627 63.3107 56.276C62.984 56.08 62.7507 55.8513 62.6107 55.59C62.4707 55.3193 62.4007 55.016 62.4007 54.68C62.4007 54.3347 62.5034 54.0033 62.7087 53.686C62.914 53.3593 63.2127 53.0933 63.6047 52.888C64.006 52.6827 64.5054 52.58 65.1027 52.58C65.588 52.58 66.0034 52.6407 66.3487 52.762C66.694 52.8833 66.9787 53.0373 67.2027 53.224C67.4267 53.4013 67.5947 53.5787 67.7067 53.756C67.8187 53.9333 67.8794 54.0827 67.8887 54.204C67.898 54.2973 67.87 54.3767 67.8047 54.442C67.7394 54.498 67.6647 54.526 67.5807 54.526H66.9927C66.9274 54.526 66.8714 54.512 66.8247 54.484C66.7874 54.456 66.75 54.4233 66.7127 54.386C66.6194 54.2647 66.5074 54.1433 66.3767 54.022C66.2554 53.9007 66.092 53.8027 65.8867 53.728C65.6907 53.644 65.4294 53.602 65.1027 53.602C64.636 53.602 64.286 53.7 64.0527 53.896C63.8194 54.092 63.7027 54.3393 63.7027 54.638C63.7027 54.8153 63.754 54.974 63.8567 55.114C63.9594 55.254 64.1554 55.38 64.4447 55.492C64.734 55.604 65.1634 55.7253 65.7327 55.856C66.3487 55.9773 66.834 56.1407 67.1887 56.346C67.5434 56.5513 67.7954 56.7893 67.9447 57.06C68.094 57.3307 68.1687 57.6433 68.1687 57.998C68.1687 58.39 68.052 58.7493 67.8187 59.076C67.5947 59.4027 67.2587 59.664 66.8107 59.86C66.372 60.0467 65.826 60.14 65.1727 60.14ZM70.1114 60C70.0181 60 69.9388 59.972 69.8734 59.916C69.8174 59.8507 69.7894 59.7713 69.7894 59.678V53.042C69.7894 52.9487 69.8174 52.874 69.8734 52.818C69.9388 52.7527 70.0181 52.72 70.1114 52.72H70.7834C70.8768 52.72 70.9514 52.7527 71.0074 52.818C71.0634 52.874 71.0914 52.9487 71.0914 53.042V59.678C71.0914 59.7713 71.0634 59.8507 71.0074 59.916C70.9514 59.972 70.8768 60 70.7834 60H70.1114ZM69.9994 51.362C69.9061 51.362 69.8268 51.334 69.7614 51.278C69.7054 51.2127 69.6774 51.1333 69.6774 51.04V50.284C69.6774 50.1907 69.7054 50.116 69.7614 50.06C69.8268 49.9947 69.9061 49.962 69.9994 49.962H70.8814C70.9748 49.962 71.0494 49.9947 71.1054 50.06C71.1708 50.116 71.2034 50.1907 71.2034 50.284V51.04C71.2034 51.1333 71.1708 51.2127 71.1054 51.278C71.0494 51.334 70.9748 51.362 70.8814 51.362H69.9994ZM76.1474 60.14C75.4847 60.14 74.9107 60.014 74.4254 59.762C73.9494 59.5007 73.5807 59.132 73.3194 58.656C73.0581 58.1707 72.9181 57.592 72.8994 56.92C72.8901 56.78 72.8854 56.5933 72.8854 56.36C72.8854 56.1267 72.8901 55.94 72.8994 55.8C72.9181 55.128 73.0581 54.554 73.3194 54.078C73.5807 53.5927 73.9494 53.224 74.4254 52.972C74.9107 52.7107 75.4847 52.58 76.1474 52.58C76.6887 52.58 77.1507 52.6547 77.5334 52.804C77.9254 52.9533 78.2474 53.1447 78.4994 53.378C78.7514 53.6113 78.9381 53.8633 79.0594 54.134C79.1901 54.4047 79.2601 54.6613 79.2694 54.904C79.2787 54.9973 79.2507 55.072 79.1854 55.128C79.1201 55.184 79.0407 55.212 78.9474 55.212H78.2754C78.1821 55.212 78.1121 55.1933 78.0654 55.156C78.0187 55.1093 77.9721 55.0347 77.9254 54.932C77.7574 54.4747 77.5287 54.1527 77.2394 53.966C76.9501 53.7793 76.5907 53.686 76.1614 53.686C75.6014 53.686 75.1441 53.8587 74.7894 54.204C74.4441 54.5493 74.2574 55.1047 74.2294 55.87C74.2201 56.206 74.2201 56.5327 74.2294 56.85C74.2574 57.6247 74.4441 58.1847 74.7894 58.53C75.1441 58.866 75.6014 59.034 76.1614 59.034C76.5907 59.034 76.9501 58.9407 77.2394 58.754C77.5287 58.5673 77.7574 58.2453 77.9254 57.788C77.9721 57.6853 78.0187 57.6153 78.0654 57.578C78.1121 57.5313 78.1821 57.508 78.2754 57.508H78.9474C79.0407 57.508 79.1201 57.536 79.1854 57.592C79.2507 57.648 79.2787 57.7227 79.2694 57.816C79.2601 58.012 79.2181 58.2127 79.1434 58.418C79.0687 58.6233 78.9474 58.8333 78.7794 59.048C78.6207 59.2533 78.4201 59.44 78.1774 59.608C77.9347 59.7667 77.6407 59.8973 77.2954 60C76.9594 60.0933 76.5767 60.14 76.1474 60.14ZM83.5185 60C83.4438 60 83.3785 59.972 83.3225 59.916C83.2665 59.86 83.2385 59.7947 83.2385 59.72C83.2385 59.6733 83.2432 59.622 83.2525 59.566L86.7245 50.508C86.7618 50.4147 86.8132 50.34 86.8785 50.284C86.9438 50.228 87.0418 50.2 87.1725 50.2H88.1245C88.2458 50.2 88.3392 50.228 88.4045 50.284C88.4792 50.34 88.5352 50.4147 88.5725 50.508L92.0305 59.566C92.0492 59.622 92.0585 59.6733 92.0585 59.72C92.0585 59.7947 92.0305 59.86 91.9745 59.916C91.9185 59.972 91.8532 60 91.7785 60H91.0645C90.9525 60 90.8685 59.972 90.8125 59.916C90.7658 59.86 90.7332 59.8087 90.7145 59.762L89.9445 57.774H85.3525L84.5825 59.762C84.5732 59.8087 84.5405 59.86 84.4845 59.916C84.4285 59.972 84.3445 60 84.2325 60H83.5185ZM85.7585 56.57H89.5385L87.6485 51.6L85.7585 56.57ZM93.6954 60C93.6021 60 93.5227 59.972 93.4574 59.916C93.4014 59.8507 93.3734 59.7713 93.3734 59.678V53.042C93.3734 52.9487 93.4014 52.874 93.4574 52.818C93.5227 52.7527 93.6021 52.72 93.6954 52.72H94.3534C94.4467 52.72 94.5214 52.7527 94.5774 52.818C94.6427 52.874 94.6754 52.9487 94.6754 53.042V53.658C94.9181 53.3407 95.2214 53.084 95.5854 52.888C95.9587 52.6827 96.4347 52.58 97.0134 52.58C97.6201 52.58 98.1334 52.7153 98.5534 52.986C98.9827 53.2473 99.3047 53.616 99.5194 54.092C99.7341 54.5587 99.8414 55.1047 99.8414 55.73V59.678C99.8414 59.7713 99.8134 59.8507 99.7574 59.916C99.7014 59.972 99.6267 60 99.5334 60H98.8334C98.7401 60 98.6607 59.972 98.5954 59.916C98.5394 59.8507 98.5114 59.7713 98.5114 59.678V55.8C98.5114 55.1467 98.3527 54.638 98.0354 54.274C97.7181 53.9007 97.2514 53.714 96.6354 53.714C96.0567 53.714 95.5901 53.9007 95.2354 54.274C94.8901 54.638 94.7174 55.1467 94.7174 55.8V59.678C94.7174 59.7713 94.6847 59.8507 94.6194 59.916C94.5634 59.972 94.4887 60 94.3954 60H93.6954ZM103.894 60.14C103.427 60.14 103.002 60.0467 102.62 59.86C102.237 59.6733 101.929 59.4213 101.696 59.104C101.462 58.7867 101.346 58.4273 101.346 58.026C101.346 57.382 101.607 56.8687 102.13 56.486C102.652 56.1033 103.334 55.8513 104.174 55.73L106.26 55.436V55.03C106.26 54.582 106.129 54.232 105.868 53.98C105.616 53.728 105.2 53.602 104.622 53.602C104.202 53.602 103.861 53.686 103.6 53.854C103.348 54.022 103.17 54.2367 103.068 54.498C103.012 54.638 102.914 54.708 102.774 54.708H102.144C102.041 54.708 101.962 54.68 101.906 54.624C101.859 54.5587 101.836 54.484 101.836 54.4C101.836 54.26 101.887 54.0873 101.99 53.882C102.102 53.6767 102.27 53.476 102.494 53.28C102.718 53.084 103.002 52.9207 103.348 52.79C103.702 52.65 104.132 52.58 104.636 52.58C105.196 52.58 105.667 52.6547 106.05 52.804C106.432 52.944 106.731 53.1353 106.946 53.378C107.17 53.6207 107.328 53.896 107.422 54.204C107.524 54.512 107.576 54.8247 107.576 55.142V59.678C107.576 59.7713 107.543 59.8507 107.478 59.916C107.422 59.972 107.347 60 107.254 60H106.61C106.507 60 106.428 59.972 106.372 59.916C106.316 59.8507 106.288 59.7713 106.288 59.678V59.076C106.166 59.244 106.003 59.412 105.798 59.58C105.592 59.7387 105.336 59.874 105.028 59.986C104.72 60.0887 104.342 60.14 103.894 60.14ZM104.188 59.09C104.57 59.09 104.92 59.0107 105.238 58.852C105.555 58.684 105.802 58.4273 105.98 58.082C106.166 57.7367 106.26 57.3027 106.26 56.78V56.388L104.636 56.626C103.973 56.7193 103.474 56.878 103.138 57.102C102.802 57.3167 102.634 57.592 102.634 57.928C102.634 58.1893 102.708 58.4087 102.858 58.586C103.016 58.754 103.212 58.88 103.446 58.964C103.688 59.048 103.936 59.09 104.188 59.09ZM109.924 60C109.831 60 109.752 59.972 109.686 59.916C109.63 59.8507 109.602 59.7713 109.602 59.678V50.382C109.602 50.2887 109.63 50.214 109.686 50.158C109.752 50.0927 109.831 50.06 109.924 50.06H110.582C110.685 50.06 110.764 50.0927 110.82 50.158C110.876 50.214 110.904 50.2887 110.904 50.382V59.678C110.904 59.7713 110.876 59.8507 110.82 59.916C110.764 59.972 110.685 60 110.582 60H109.924ZM114.267 62.66C114.192 62.66 114.127 62.632 114.071 62.576C114.015 62.52 113.987 62.4547 113.987 62.38C113.987 62.3427 113.991 62.3053 114.001 62.268C114.01 62.2307 114.029 62.184 114.057 62.128L115.135 59.566L112.461 53.252C112.414 53.14 112.391 53.0607 112.391 53.014C112.391 52.93 112.419 52.86 112.475 52.804C112.531 52.748 112.601 52.72 112.685 52.72H113.371C113.464 52.72 113.539 52.7433 113.595 52.79C113.651 52.8367 113.688 52.8927 113.707 52.958L115.835 58.054L118.019 52.958C118.047 52.8927 118.084 52.8367 118.131 52.79C118.187 52.7433 118.266 52.72 118.369 52.72H119.027C119.111 52.72 119.181 52.748 119.237 52.804C119.293 52.86 119.321 52.9253 119.321 53C119.321 53.0467 119.297 53.1307 119.251 53.252L115.275 62.422C115.247 62.4873 115.205 62.5433 115.149 62.59C115.102 62.6367 115.027 62.66 114.925 62.66H114.267ZM123.005 60.14C122.482 60.14 122.034 60.0747 121.661 59.944C121.287 59.8133 120.984 59.6547 120.751 59.468C120.517 59.2813 120.34 59.0947 120.219 58.908C120.107 58.7213 120.046 58.572 120.037 58.46C120.027 58.3573 120.06 58.278 120.135 58.222C120.209 58.166 120.284 58.138 120.359 58.138H120.975C121.031 58.138 121.073 58.1473 121.101 58.166C121.138 58.1753 121.185 58.2127 121.241 58.278C121.362 58.4087 121.497 58.5393 121.647 58.67C121.796 58.8007 121.978 58.908 122.193 58.992C122.417 59.076 122.692 59.118 123.019 59.118C123.495 59.118 123.887 59.0293 124.195 58.852C124.503 58.6653 124.657 58.3947 124.657 58.04C124.657 57.8067 124.591 57.62 124.461 57.48C124.339 57.34 124.115 57.214 123.789 57.102C123.471 56.99 123.033 56.8733 122.473 56.752C121.913 56.6213 121.469 56.4627 121.143 56.276C120.816 56.08 120.583 55.8513 120.443 55.59C120.303 55.3193 120.233 55.016 120.233 54.68C120.233 54.3347 120.335 54.0033 120.541 53.686C120.746 53.3593 121.045 53.0933 121.437 52.888C121.838 52.6827 122.337 52.58 122.935 52.58C123.42 52.58 123.835 52.6407 124.181 52.762C124.526 52.8833 124.811 53.0373 125.035 53.224C125.259 53.4013 125.427 53.5787 125.539 53.756C125.651 53.9333 125.711 54.0827 125.721 54.204C125.73 54.2973 125.702 54.3767 125.637 54.442C125.571 54.498 125.497 54.526 125.413 54.526H124.825C124.759 54.526 124.703 54.512 124.657 54.484C124.619 54.456 124.582 54.4233 124.545 54.386C124.451 54.2647 124.339 54.1433 124.209 54.022C124.087 53.9007 123.924 53.8027 123.719 53.728C123.523 53.644 123.261 53.602 122.935 53.602C122.468 53.602 122.118 53.7 121.885 53.896C121.651 54.092 121.535 54.3393 121.535 54.638C121.535 54.8153 121.586 54.974 121.689 55.114C121.791 55.254 121.987 55.38 122.277 55.492C122.566 55.604 122.995 55.7253 123.565 55.856C124.181 55.9773 124.666 56.1407 125.021 56.346C125.375 56.5513 125.627 56.7893 125.777 57.06C125.926 57.3307 126.001 57.6433 126.001 57.998C126.001 58.39 125.884 58.7493 125.651 59.076C125.427 59.4027 125.091 59.664 124.643 59.86C124.204 60.0467 123.658 60.14 123.005 60.14ZM127.943 60C127.85 60 127.771 59.972 127.705 59.916C127.649 59.8507 127.621 59.7713 127.621 59.678V53.042C127.621 52.9487 127.649 52.874 127.705 52.818C127.771 52.7527 127.85 52.72 127.943 52.72H128.615C128.709 52.72 128.783 52.7527 128.839 52.818C128.895 52.874 128.923 52.9487 128.923 53.042V59.678C128.923 59.7713 128.895 59.8507 128.839 59.916C128.783 59.972 128.709 60 128.615 60H127.943ZM127.831 51.362C127.738 51.362 127.659 51.334 127.593 51.278C127.537 51.2127 127.509 51.1333 127.509 51.04V50.284C127.509 50.1907 127.537 50.116 127.593 50.06C127.659 49.9947 127.738 49.962 127.831 49.962H128.713C128.807 49.962 128.881 49.9947 128.937 50.06C129.003 50.116 129.035 50.1907 129.035 50.284V51.04C129.035 51.1333 129.003 51.2127 128.937 51.278C128.881 51.334 128.807 51.362 128.713 51.362H127.831ZM133.614 60.14C133.091 60.14 132.643 60.0747 132.27 59.944C131.897 59.8133 131.593 59.6547 131.36 59.468C131.127 59.2813 130.949 59.0947 130.828 58.908C130.716 58.7213 130.655 58.572 130.646 58.46C130.637 58.3573 130.669 58.278 130.744 58.222C130.819 58.166 130.893 58.138 130.968 58.138H131.584C131.64 58.138 131.682 58.1473 131.71 58.166C131.747 58.1753 131.794 58.2127 131.85 58.278C131.971 58.4087 132.107 58.5393 132.256 58.67C132.405 58.8007 132.587 58.908 132.802 58.992C133.026 59.076 133.301 59.118 133.628 59.118C134.104 59.118 134.496 59.0293 134.804 58.852C135.112 58.6653 135.266 58.3947 135.266 58.04C135.266 57.8067 135.201 57.62 135.07 57.48C134.949 57.34 134.725 57.214 134.398 57.102C134.081 56.99 133.642 56.8733 133.082 56.752C132.522 56.6213 132.079 56.4627 131.752 56.276C131.425 56.08 131.192 55.8513 131.052 55.59C130.912 55.3193 130.842 55.016 130.842 54.68C130.842 54.3347 130.945 54.0033 131.15 53.686C131.355 53.3593 131.654 53.0933 132.046 52.888C132.447 52.6827 132.947 52.58 133.544 52.58C134.029 52.58 134.445 52.6407 134.79 52.762C135.135 52.8833 135.42 53.0373 135.644 53.224C135.868 53.4013 136.036 53.5787 136.148 53.756C136.26 53.9333 136.321 54.0827 136.33 54.204C136.339 54.2973 136.311 54.3767 136.246 54.442C136.181 54.498 136.106 54.526 136.022 54.526H135.434C135.369 54.526 135.313 54.512 135.266 54.484C135.229 54.456 135.191 54.4233 135.154 54.386C135.061 54.2647 134.949 54.1433 134.818 54.022C134.697 53.9007 134.533 53.8027 134.328 53.728C134.132 53.644 133.871 53.602 133.544 53.602C133.077 53.602 132.727 53.7 132.494 53.896C132.261 54.092 132.144 54.3393 132.144 54.638C132.144 54.8153 132.195 54.974 132.298 55.114C132.401 55.254 132.597 55.38 132.886 55.492C133.175 55.604 133.605 55.7253 134.174 55.856C134.79 55.9773 135.275 56.1407 135.63 56.346C135.985 56.5513 136.237 56.7893 136.386 57.06C136.535 57.3307 136.61 57.6433 136.61 57.998C136.61 58.39 136.493 58.7493 136.26 59.076C136.036 59.4027 135.7 59.664 135.252 59.86C134.813 60.0467 134.267 60.14 133.614 60.14Z" fill="#4F5665"/>
<path d="M10.8463 59.7299C10.7151 59.7302 10.585 59.7045 10.4637 59.6544C10.3424 59.6043 10.2322 59.5307 10.1393 59.4379L5.89734 55.1949C5.80177 55.1027 5.72551 54.9924 5.67301 54.8705C5.62052 54.7485 5.59284 54.6173 5.5916 54.4845C5.59035 54.3517 5.61556 54.22 5.66575 54.0971C5.71595 53.9742 5.79012 53.8625 5.88395 53.7685C5.97777 53.6746 6.08937 53.6002 6.21223 53.5499C6.33509 53.4995 6.46675 53.4741 6.59953 53.4752C6.73231 53.4762 6.86354 53.5037 6.98559 53.556C7.10763 53.6083 7.21802 53.6845 7.31034 53.7799L10.8453 57.3149L17.2103 50.9519C17.3978 50.7643 17.6522 50.6588 17.9175 50.6587C18.1828 50.6586 18.4372 50.7639 18.6248 50.9514C18.8125 51.1389 18.9179 51.3933 18.918 51.6585C18.9181 51.9238 18.8128 52.1783 18.6253 52.3659L11.5533 59.4379C11.4605 59.5307 11.3503 59.6043 11.229 59.6544C11.1076 59.7045 10.9776 59.7302 10.8463 59.7299Z" fill="#2FAB73"/>
<path d="M49.4545 100.14C48.6705 100.14 47.9939 100 47.4245 99.72C46.8645 99.44 46.4305 99.0153 46.1225 98.446C45.8239 97.8673 45.6745 97.1253 45.6745 96.22V90.536C45.6745 90.4333 45.7025 90.354 45.7585 90.298C45.8145 90.2327 45.8939 90.2 45.9965 90.2H46.7105C46.8132 90.2 46.8925 90.2327 46.9485 90.298C47.0139 90.354 47.0465 90.4333 47.0465 90.536V96.248C47.0465 97.1627 47.2612 97.8393 47.6905 98.278C48.1199 98.7167 48.7079 98.936 49.4545 98.936C50.1919 98.936 50.7752 98.7167 51.2045 98.278C51.6432 97.8393 51.8625 97.1627 51.8625 96.248V90.536C51.8625 90.4333 51.8905 90.354 51.9465 90.298C52.0119 90.2327 52.0912 90.2 52.1845 90.2H52.9125C53.0059 90.2 53.0805 90.2327 53.1365 90.298C53.2019 90.354 53.2345 90.4333 53.2345 90.536V96.22C53.2345 97.1253 53.0805 97.8673 52.7725 98.446C52.4739 99.0153 52.0445 99.44 51.4845 99.72C50.9245 100 50.2479 100.14 49.4545 100.14ZM55.7149 100C55.6216 100 55.5423 99.972 55.4769 99.916C55.4209 99.8507 55.3929 99.7713 55.3929 99.678V93.042C55.3929 92.9487 55.4209 92.874 55.4769 92.818C55.5423 92.7527 55.6216 92.72 55.7149 92.72H56.3729C56.4663 92.72 56.5409 92.7527 56.5969 92.818C56.6623 92.874 56.6949 92.9487 56.6949 93.042V93.658C56.9376 93.3407 57.2409 93.084 57.6049 92.888C57.9783 92.6827 58.4543 92.58 59.0329 92.58C59.6396 92.58 60.1529 92.7153 60.5729 92.986C61.0023 93.2473 61.3243 93.616 61.5389 94.092C61.7536 94.5587 61.8609 95.1047 61.8609 95.73V99.678C61.8609 99.7713 61.8329 99.8507 61.7769 99.916C61.7209 99.972 61.6463 100 61.5529 100H60.8529C60.7596 100 60.6803 99.972 60.6149 99.916C60.5589 99.8507 60.5309 99.7713 60.5309 99.678V95.8C60.5309 95.1467 60.3723 94.638 60.0549 94.274C59.7376 93.9007 59.2709 93.714 58.6549 93.714C58.0763 93.714 57.6096 93.9007 57.2549 94.274C56.9096 94.638 56.7369 95.1467 56.7369 95.8V99.678C56.7369 99.7713 56.7043 99.8507 56.6389 99.916C56.5829 99.972 56.5083 100 56.4149 100H55.7149ZM64.2192 100C64.1258 100 64.0465 99.972 63.9812 99.916C63.9252 99.8507 63.8972 99.7713 63.8972 99.678V90.382C63.8972 90.2887 63.9252 90.214 63.9812 90.158C64.0465 90.0927 64.1258 90.06 64.2192 90.06H64.8772C64.9798 90.06 65.0592 90.0927 65.1152 90.158C65.1712 90.214 65.1992 90.2887 65.1992 90.382V99.678C65.1992 99.7713 65.1712 99.8507 65.1152 99.916C65.0592 99.972 64.9798 100 64.8772 100H64.2192ZM67.7462 100C67.6529 100 67.5735 99.972 67.5082 99.916C67.4522 99.8507 67.4242 99.7713 67.4242 99.678V93.042C67.4242 92.9487 67.4522 92.874 67.5082 92.818C67.5735 92.7527 67.6529 92.72 67.7462 92.72H68.4182C68.5115 92.72 68.5862 92.7527 68.6422 92.818C68.6982 92.874 68.7262 92.9487 68.7262 93.042V99.678C68.7262 99.7713 68.6982 99.8507 68.6422 99.916C68.5862 99.972 68.5115 100 68.4182 100H67.7462ZM67.6342 91.362C67.5409 91.362 67.4615 91.334 67.3962 91.278C67.3402 91.2127 67.3122 91.1333 67.3122 91.04V90.284C67.3122 90.1907 67.3402 90.116 67.3962 90.06C67.4615 89.9947 67.5409 89.962 67.6342 89.962H68.5162C68.6095 89.962 68.6842 89.9947 68.7402 90.06C68.8055 90.116 68.8382 90.1907 68.8382 90.284V91.04C68.8382 91.1333 68.8055 91.2127 68.7402 91.278C68.6842 91.334 68.6095 91.362 68.5162 91.362H67.6342ZM71.2735 100C71.1802 100 71.1009 99.972 71.0355 99.916C70.9795 99.8507 70.9515 99.7713 70.9515 99.678V93.042C70.9515 92.9487 70.9795 92.874 71.0355 92.818C71.1009 92.7527 71.1802 92.72 71.2735 92.72H71.9035C71.9969 92.72 72.0715 92.7527 72.1275 92.818C72.1929 92.874 72.2255 92.9487 72.2255 93.042V93.532C72.4402 93.2427 72.7109 93.014 73.0375 92.846C73.3642 92.6687 73.7562 92.58 74.2135 92.58C75.2682 92.5707 76.0149 93 76.4535 93.868C76.6682 93.476 76.9809 93.1633 77.3915 92.93C77.8022 92.6967 78.2689 92.58 78.7915 92.58C79.2769 92.58 79.7155 92.692 80.1075 92.916C80.5089 93.14 80.8215 93.4807 81.0455 93.938C81.2789 94.386 81.3955 94.9507 81.3955 95.632V99.678C81.3955 99.7713 81.3629 99.8507 81.2975 99.916C81.2415 99.972 81.1669 100 81.0735 100H80.4155C80.3222 100 80.2429 99.972 80.1775 99.916C80.1215 99.8507 80.0935 99.7713 80.0935 99.678V95.758C80.0935 95.2353 80.0189 94.8247 79.8695 94.526C79.7202 94.2273 79.5195 94.0173 79.2675 93.896C79.0155 93.7747 78.7402 93.714 78.4415 93.714C78.1989 93.714 77.9515 93.7747 77.6995 93.896C77.4475 94.0173 77.2375 94.2273 77.0695 94.526C76.9109 94.8247 76.8315 95.2353 76.8315 95.758V99.678C76.8315 99.7713 76.7989 99.8507 76.7335 99.916C76.6775 99.972 76.6029 100 76.5095 100H75.8515C75.7582 100 75.6789 99.972 75.6135 99.916C75.5575 99.8507 75.5295 99.7713 75.5295 99.678V95.758C75.5295 95.2353 75.4502 94.8247 75.2915 94.526C75.1329 94.2273 74.9275 94.0173 74.6755 93.896C74.4235 93.7747 74.1575 93.714 73.8775 93.714C73.6349 93.714 73.3875 93.7747 73.1355 93.896C72.8835 94.0173 72.6735 94.2273 72.5055 94.526C72.3469 94.8247 72.2675 95.2307 72.2675 95.744V99.678C72.2675 99.7713 72.2349 99.8507 72.1695 99.916C72.1135 99.972 72.0389 100 71.9455 100H71.2735ZM83.7149 100C83.6216 100 83.5423 99.972 83.4769 99.916C83.4209 99.8507 83.3929 99.7713 83.3929 99.678V93.042C83.3929 92.9487 83.4209 92.874 83.4769 92.818C83.5423 92.7527 83.6216 92.72 83.7149 92.72H84.3869C84.4803 92.72 84.5549 92.7527 84.6109 92.818C84.6669 92.874 84.6949 92.9487 84.6949 93.042V99.678C84.6949 99.7713 84.6669 99.8507 84.6109 99.916C84.5549 99.972 84.4803 100 84.3869 100H83.7149ZM83.6029 91.362C83.5096 91.362 83.4303 91.334 83.3649 91.278C83.3089 91.2127 83.2809 91.1333 83.2809 91.04V90.284C83.2809 90.1907 83.3089 90.116 83.3649 90.06C83.4303 89.9947 83.5096 89.962 83.6029 89.962H84.4849C84.5783 89.962 84.6529 89.9947 84.7089 90.06C84.7743 90.116 84.8069 90.1907 84.8069 90.284V91.04C84.8069 91.1333 84.7743 91.2127 84.7089 91.278C84.6529 91.334 84.5783 91.362 84.4849 91.362H83.6029ZM89.6256 100C89.1029 100 88.6782 99.902 88.3516 99.706C88.0249 99.5007 87.7869 99.216 87.6376 98.852C87.4882 98.4787 87.4136 98.04 87.4136 97.536V93.84H86.3216C86.2282 93.84 86.1489 93.812 86.0836 93.756C86.0276 93.6907 85.9996 93.6113 85.9996 93.518V93.042C85.9996 92.9487 86.0276 92.874 86.0836 92.818C86.1489 92.7527 86.2282 92.72 86.3216 92.72H87.4136V90.382C87.4136 90.2887 87.4416 90.214 87.4976 90.158C87.5629 90.0927 87.6422 90.06 87.7356 90.06H88.3936C88.4869 90.06 88.5616 90.0927 88.6176 90.158C88.6829 90.214 88.7156 90.2887 88.7156 90.382V92.72H90.4516C90.5449 92.72 90.6196 92.7527 90.6756 92.818C90.7409 92.874 90.7736 92.9487 90.7736 93.042V93.518C90.7736 93.6113 90.7409 93.6907 90.6756 93.756C90.6196 93.812 90.5449 93.84 90.4516 93.84H88.7156V97.438C88.7156 97.8767 88.7902 98.222 88.9396 98.474C89.0889 98.726 89.3549 98.852 89.7376 98.852H90.5916C90.6849 98.852 90.7596 98.8847 90.8156 98.95C90.8809 99.006 90.9136 99.0807 90.9136 99.174V99.678C90.9136 99.7713 90.8809 99.8507 90.8156 99.916C90.7596 99.972 90.6849 100 90.5916 100H89.6256ZM95.1503 100.14C94.189 100.14 93.4236 99.846 92.8543 99.258C92.285 98.6607 91.9723 97.8487 91.9163 96.822C91.907 96.7007 91.9023 96.5467 91.9023 96.36C91.9023 96.164 91.907 96.0053 91.9163 95.884C91.9536 95.2213 92.1076 94.6427 92.3783 94.148C92.649 93.644 93.0176 93.2567 93.4843 92.986C93.9603 92.7153 94.5156 92.58 95.1503 92.58C95.8596 92.58 96.4523 92.7293 96.9283 93.028C97.4136 93.3267 97.7823 93.7513 98.0343 94.302C98.2863 94.8527 98.4123 95.4967 98.4123 96.234V96.472C98.4123 96.5747 98.3796 96.654 98.3143 96.71C98.2583 96.766 98.1836 96.794 98.0903 96.794H93.2463C93.2463 96.8033 93.2463 96.822 93.2463 96.85C93.2463 96.878 93.2463 96.9013 93.2463 96.92C93.265 97.3027 93.349 97.662 93.4983 97.998C93.6476 98.3247 93.8623 98.5907 94.1423 98.796C94.4223 99.0013 94.7583 99.104 95.1503 99.104C95.4863 99.104 95.7663 99.0527 95.9903 98.95C96.2143 98.8473 96.3963 98.7353 96.5363 98.614C96.6763 98.4833 96.7696 98.3853 96.8163 98.32C96.9003 98.1987 96.9656 98.1287 97.0123 98.11C97.059 98.082 97.1336 98.068 97.2363 98.068H97.9083C98.0016 98.068 98.0763 98.096 98.1323 98.152C98.1976 98.1987 98.2256 98.2687 98.2163 98.362C98.207 98.502 98.1323 98.6747 97.9923 98.88C97.8523 99.076 97.6516 99.272 97.3903 99.468C97.129 99.664 96.8116 99.8273 96.4383 99.958C96.065 100.079 95.6356 100.14 95.1503 100.14ZM93.2463 95.828H97.0823V95.786C97.0823 95.366 97.003 94.9927 96.8443 94.666C96.695 94.3393 96.4756 94.0827 96.1863 93.896C95.897 93.7 95.5516 93.602 95.1503 93.602C94.749 93.602 94.4036 93.7 94.1143 93.896C93.8343 94.0827 93.6196 94.3393 93.4703 94.666C93.321 94.9927 93.2463 95.366 93.2463 95.786V95.828ZM102.746 100.14C102.233 100.14 101.79 100.051 101.416 99.874C101.043 99.6873 100.735 99.44 100.492 99.132C100.259 98.8147 100.082 98.4553 99.9603 98.054C99.8483 97.6527 99.783 97.228 99.7643 96.78C99.755 96.6307 99.7503 96.4907 99.7503 96.36C99.7503 96.2293 99.755 96.0893 99.7643 95.94C99.783 95.5013 99.8483 95.0813 99.9603 94.68C100.082 94.2787 100.259 93.9193 100.492 93.602C100.735 93.2847 101.043 93.0373 101.416 92.86C101.79 92.6733 102.233 92.58 102.746 92.58C103.297 92.58 103.754 92.678 104.118 92.874C104.482 93.07 104.781 93.3127 105.014 93.602V90.382C105.014 90.2887 105.042 90.214 105.098 90.158C105.164 90.0927 105.243 90.06 105.336 90.06H106.008C106.102 90.06 106.176 90.0927 106.232 90.158C106.298 90.214 106.33 90.2887 106.33 90.382V99.678C106.33 99.7713 106.298 99.8507 106.232 99.916C106.176 99.972 106.102 100 106.008 100H105.378C105.276 100 105.196 99.972 105.14 99.916C105.084 99.8507 105.056 99.7713 105.056 99.678V99.09C104.823 99.3887 104.52 99.6407 104.146 99.846C103.773 100.042 103.306 100.14 102.746 100.14ZM103.04 99.006C103.507 99.006 103.88 98.8987 104.16 98.684C104.44 98.4693 104.65 98.1987 104.79 97.872C104.93 97.536 105.005 97.1953 105.014 96.85C105.024 96.7007 105.028 96.5233 105.028 96.318C105.028 96.1033 105.024 95.9213 105.014 95.772C105.005 95.4453 104.926 95.1233 104.776 94.806C104.636 94.4887 104.422 94.2273 104.132 94.022C103.852 93.8167 103.488 93.714 103.04 93.714C102.564 93.714 102.186 93.8213 101.906 94.036C101.626 94.2413 101.426 94.5167 101.304 94.862C101.183 95.198 101.113 95.562 101.094 95.954C101.085 96.2247 101.085 96.4953 101.094 96.766C101.113 97.158 101.183 97.5267 101.304 97.872C101.426 98.208 101.626 98.4833 101.906 98.698C102.186 98.9033 102.564 99.006 103.04 99.006ZM115.176 100.14C114.364 100.14 113.683 100.019 113.132 99.776C112.581 99.524 112.157 99.202 111.858 98.81C111.569 98.4087 111.415 97.984 111.396 97.536C111.396 97.4613 111.424 97.396 111.48 97.34C111.545 97.2747 111.62 97.242 111.704 97.242H112.418C112.53 97.242 112.614 97.27 112.67 97.326C112.726 97.382 112.763 97.4473 112.782 97.522C112.829 97.746 112.941 97.97 113.118 98.194C113.305 98.4087 113.561 98.5907 113.888 98.74C114.224 98.88 114.653 98.95 115.176 98.95C115.979 98.95 116.567 98.81 116.94 98.53C117.323 98.2407 117.514 97.858 117.514 97.382C117.514 97.0553 117.411 96.794 117.206 96.598C117.01 96.3927 116.707 96.2107 116.296 96.052C115.885 95.8933 115.353 95.7207 114.7 95.534C114.019 95.338 113.454 95.1233 113.006 94.89C112.558 94.6567 112.222 94.3673 111.998 94.022C111.783 93.6767 111.676 93.238 111.676 92.706C111.676 92.202 111.811 91.754 112.082 91.362C112.353 90.9607 112.74 90.6433 113.244 90.41C113.757 90.1767 114.378 90.06 115.106 90.06C115.685 90.06 116.189 90.1393 116.618 90.298C117.057 90.4473 117.421 90.6527 117.71 90.914C117.999 91.166 118.219 91.4413 118.368 91.74C118.517 92.0293 118.597 92.314 118.606 92.594C118.606 92.6593 118.583 92.7247 118.536 92.79C118.489 92.846 118.415 92.874 118.312 92.874H117.57C117.505 92.874 117.435 92.8553 117.36 92.818C117.295 92.7807 117.243 92.7107 117.206 92.608C117.15 92.2253 116.935 91.9033 116.562 91.642C116.189 91.3807 115.703 91.25 115.106 91.25C114.499 91.25 114.005 91.3667 113.622 91.6C113.249 91.8333 113.062 92.1973 113.062 92.692C113.062 93.0093 113.151 93.2753 113.328 93.49C113.505 93.6953 113.785 93.8773 114.168 94.036C114.551 94.1947 115.05 94.3627 115.666 94.54C116.413 94.7453 117.024 94.9647 117.5 95.198C117.976 95.422 118.326 95.7067 118.55 96.052C118.783 96.388 118.9 96.822 118.9 97.354C118.9 97.942 118.746 98.446 118.438 98.866C118.13 99.2767 117.696 99.594 117.136 99.818C116.585 100.033 115.932 100.14 115.176 100.14ZM123.451 100.14C122.49 100.14 121.724 99.846 121.155 99.258C120.586 98.6607 120.273 97.8487 120.217 96.822C120.208 96.7007 120.203 96.5467 120.203 96.36C120.203 96.164 120.208 96.0053 120.217 95.884C120.254 95.2213 120.408 94.6427 120.679 94.148C120.95 93.644 121.318 93.2567 121.785 92.986C122.261 92.7153 122.816 92.58 123.451 92.58C124.16 92.58 124.753 92.7293 125.229 93.028C125.714 93.3267 126.083 93.7513 126.335 94.302C126.587 94.8527 126.713 95.4967 126.713 96.234V96.472C126.713 96.5747 126.68 96.654 126.615 96.71C126.559 96.766 126.484 96.794 126.391 96.794H121.547C121.547 96.8033 121.547 96.822 121.547 96.85C121.547 96.878 121.547 96.9013 121.547 96.92C121.566 97.3027 121.65 97.662 121.799 97.998C121.948 98.3247 122.163 98.5907 122.443 98.796C122.723 99.0013 123.059 99.104 123.451 99.104C123.787 99.104 124.067 99.0527 124.291 98.95C124.515 98.8473 124.697 98.7353 124.837 98.614C124.977 98.4833 125.07 98.3853 125.117 98.32C125.201 98.1987 125.266 98.1287 125.313 98.11C125.36 98.082 125.434 98.068 125.537 98.068H126.209C126.302 98.068 126.377 98.096 126.433 98.152C126.498 98.1987 126.526 98.2687 126.517 98.362C126.508 98.502 126.433 98.6747 126.293 98.88C126.153 99.076 125.952 99.272 125.691 99.468C125.43 99.664 125.112 99.8273 124.739 99.958C124.366 100.079 123.936 100.14 123.451 100.14ZM121.547 95.828H125.383V95.786C125.383 95.366 125.304 94.9927 125.145 94.666C124.996 94.3393 124.776 94.0827 124.487 93.896C124.198 93.7 123.852 93.602 123.451 93.602C123.05 93.602 122.704 93.7 122.415 93.896C122.135 94.0827 121.92 94.3393 121.771 94.666C121.622 94.9927 121.547 95.366 121.547 95.786V95.828ZM128.723 100C128.63 100 128.55 99.972 128.485 99.916C128.429 99.8507 128.401 99.7713 128.401 99.678V90.382C128.401 90.2887 128.429 90.214 128.485 90.158C128.55 90.0927 128.63 90.06 128.723 90.06H129.381C129.484 90.06 129.563 90.0927 129.619 90.158C129.675 90.214 129.703 90.2887 129.703 90.382V99.678C129.703 99.7713 129.675 99.8507 129.619 99.916C129.563 99.972 129.484 100 129.381 100H128.723ZM134.689 100.14C133.728 100.14 132.963 99.846 132.393 99.258C131.824 98.6607 131.511 97.8487 131.455 96.822C131.446 96.7007 131.441 96.5467 131.441 96.36C131.441 96.164 131.446 96.0053 131.455 95.884C131.493 95.2213 131.647 94.6427 131.917 94.148C132.188 93.644 132.557 93.2567 133.023 92.986C133.499 92.7153 134.055 92.58 134.689 92.58C135.399 92.58 135.991 92.7293 136.467 93.028C136.953 93.3267 137.321 93.7513 137.573 94.302C137.825 94.8527 137.951 95.4967 137.951 96.234V96.472C137.951 96.5747 137.919 96.654 137.853 96.71C137.797 96.766 137.723 96.794 137.629 96.794H132.785C132.785 96.8033 132.785 96.822 132.785 96.85C132.785 96.878 132.785 96.9013 132.785 96.92C132.804 97.3027 132.888 97.662 133.037 97.998C133.187 98.3247 133.401 98.5907 133.681 98.796C133.961 99.0013 134.297 99.104 134.689 99.104C135.025 99.104 135.305 99.0527 135.529 98.95C135.753 98.8473 135.935 98.7353 136.075 98.614C136.215 98.4833 136.309 98.3853 136.355 98.32C136.439 98.1987 136.505 98.1287 136.551 98.11C136.598 98.082 136.673 98.068 136.775 98.068H137.447C137.541 98.068 137.615 98.096 137.671 98.152C137.737 98.1987 137.765 98.2687 137.755 98.362C137.746 98.502 137.671 98.6747 137.531 98.88C137.391 99.076 137.191 99.272 136.929 99.468C136.668 99.664 136.351 99.8273 135.977 99.958C135.604 100.079 135.175 100.14 134.689 100.14ZM132.785 95.828H136.621V95.786C136.621 95.366 136.542 94.9927 136.383 94.666C136.234 94.3393 136.015 94.0827 135.725 93.896C135.436 93.7 135.091 93.602 134.689 93.602C134.288 93.602 133.943 93.7 133.653 93.896C133.373 94.0827 133.159 94.3393 133.009 94.666C132.86 94.9927 132.785 95.366 132.785 95.786V95.828ZM142.565 100.14C141.903 100.14 141.329 100.014 140.843 99.762C140.367 99.5007 139.999 99.132 139.737 98.656C139.476 98.1707 139.336 97.592 139.317 96.92C139.308 96.78 139.303 96.5933 139.303 96.36C139.303 96.1267 139.308 95.94 139.317 95.8C139.336 95.128 139.476 94.554 139.737 94.078C139.999 93.5927 140.367 93.224 140.843 92.972C141.329 92.7107 141.903 92.58 142.565 92.58C143.107 92.58 143.569 92.6547 143.951 92.804C144.343 92.9533 144.665 93.1447 144.917 93.378C145.169 93.6113 145.356 93.8633 145.477 94.134C145.608 94.4047 145.678 94.6613 145.687 94.904C145.697 94.9973 145.669 95.072 145.603 95.128C145.538 95.184 145.459 95.212 145.365 95.212H144.693C144.6 95.212 144.53 95.1933 144.483 95.156C144.437 95.1093 144.39 95.0347 144.343 94.932C144.175 94.4747 143.947 94.1527 143.657 93.966C143.368 93.7793 143.009 93.686 142.579 93.686C142.019 93.686 141.562 93.8587 141.207 94.204C140.862 94.5493 140.675 95.1047 140.647 95.87C140.638 96.206 140.638 96.5327 140.647 96.85C140.675 97.6247 140.862 98.1847 141.207 98.53C141.562 98.866 142.019 99.034 142.579 99.034C143.009 99.034 143.368 98.9407 143.657 98.754C143.947 98.5673 144.175 98.2453 144.343 97.788C144.39 97.6853 144.437 97.6153 144.483 97.578C144.53 97.5313 144.6 97.508 144.693 97.508H145.365C145.459 97.508 145.538 97.536 145.603 97.592C145.669 97.648 145.697 97.7227 145.687 97.816C145.678 98.012 145.636 98.2127 145.561 98.418C145.487 98.6233 145.365 98.8333 145.197 99.048C145.039 99.2533 144.838 99.44 144.595 99.608C144.353 99.7667 144.059 99.8973 143.713 100C143.377 100.093 142.995 100.14 142.565 100.14ZM150.192 100C149.669 100 149.245 99.902 148.918 99.706C148.591 99.5007 148.353 99.216 148.204 98.852C148.055 98.4787 147.98 98.04 147.98 97.536V93.84H146.888C146.795 93.84 146.715 93.812 146.65 93.756C146.594 93.6907 146.566 93.6113 146.566 93.518V93.042C146.566 92.9487 146.594 92.874 146.65 92.818C146.715 92.7527 146.795 92.72 146.888 92.72H147.98V90.382C147.98 90.2887 148.008 90.214 148.064 90.158C148.129 90.0927 148.209 90.06 148.302 90.06H148.96C149.053 90.06 149.128 90.0927 149.184 90.158C149.249 90.214 149.282 90.2887 149.282 90.382V92.72H151.018C151.111 92.72 151.186 92.7527 151.242 92.818C151.307 92.874 151.34 92.9487 151.34 93.042V93.518C151.34 93.6113 151.307 93.6907 151.242 93.756C151.186 93.812 151.111 93.84 151.018 93.84H149.282V97.438C149.282 97.8767 149.357 98.222 149.506 98.474C149.655 98.726 149.921 98.852 150.304 98.852H151.158C151.251 98.852 151.326 98.8847 151.382 98.95C151.447 99.006 151.48 99.0807 151.48 99.174V99.678C151.48 99.7713 151.447 99.8507 151.382 99.916C151.326 99.972 151.251 100 151.158 100H150.192ZM159.582 100.14C158.77 100.14 158.089 100.019 157.538 99.776C156.988 99.524 156.563 99.202 156.264 98.81C155.975 98.4087 155.821 97.984 155.802 97.536C155.802 97.4613 155.83 97.396 155.886 97.34C155.952 97.2747 156.026 97.242 156.11 97.242H156.824C156.936 97.242 157.02 97.27 157.076 97.326C157.132 97.382 157.17 97.4473 157.188 97.522C157.235 97.746 157.347 97.97 157.524 98.194C157.711 98.4087 157.968 98.5907 158.294 98.74C158.63 98.88 159.06 98.95 159.582 98.95C160.385 98.95 160.973 98.81 161.346 98.53C161.729 98.2407 161.92 97.858 161.92 97.382C161.92 97.0553 161.818 96.794 161.612 96.598C161.416 96.3927 161.113 96.2107 160.702 96.052C160.292 95.8933 159.76 95.7207 159.106 95.534C158.425 95.338 157.86 95.1233 157.412 94.89C156.964 94.6567 156.628 94.3673 156.404 94.022C156.19 93.6767 156.082 93.238 156.082 92.706C156.082 92.202 156.218 91.754 156.488 91.362C156.759 90.9607 157.146 90.6433 157.65 90.41C158.164 90.1767 158.784 90.06 159.512 90.06C160.091 90.06 160.595 90.1393 161.024 90.298C161.463 90.4473 161.827 90.6527 162.116 90.914C162.406 91.166 162.625 91.4413 162.774 91.74C162.924 92.0293 163.003 92.314 163.012 92.594C163.012 92.6593 162.989 92.7247 162.942 92.79C162.896 92.846 162.821 92.874 162.718 92.874H161.976C161.911 92.874 161.841 92.8553 161.766 92.818C161.701 92.7807 161.65 92.7107 161.612 92.608C161.556 92.2253 161.342 91.9033 160.968 91.642C160.595 91.3807 160.11 91.25 159.512 91.25C158.906 91.25 158.411 91.3667 158.028 91.6C157.655 91.8333 157.468 92.1973 157.468 92.692C157.468 93.0093 157.557 93.2753 157.734 93.49C157.912 93.6953 158.192 93.8773 158.574 94.036C158.957 94.1947 159.456 94.3627 160.072 94.54C160.819 94.7453 161.43 94.9647 161.906 95.198C162.382 95.422 162.732 95.7067 162.956 96.052C163.19 96.388 163.306 96.822 163.306 97.354C163.306 97.942 163.152 98.446 162.844 98.866C162.536 99.2767 162.102 99.594 161.542 99.818C160.992 100.033 160.338 100.14 159.582 100.14ZM167.857 100.14C166.896 100.14 166.131 99.846 165.561 99.258C164.992 98.6607 164.679 97.8487 164.623 96.822C164.614 96.7007 164.609 96.5467 164.609 96.36C164.609 96.164 164.614 96.0053 164.623 95.884C164.661 95.2213 164.815 94.6427 165.085 94.148C165.356 93.644 165.725 93.2567 166.191 92.986C166.667 92.7153 167.223 92.58 167.857 92.58C168.567 92.58 169.159 92.7293 169.635 93.028C170.121 93.3267 170.489 93.7513 170.741 94.302C170.993 94.8527 171.119 95.4967 171.119 96.234V96.472C171.119 96.5747 171.087 96.654 171.021 96.71C170.965 96.766 170.891 96.794 170.797 96.794H165.953C165.953 96.8033 165.953 96.822 165.953 96.85C165.953 96.878 165.953 96.9013 165.953 96.92C165.972 97.3027 166.056 97.662 166.205 97.998C166.355 98.3247 166.569 98.5907 166.849 98.796C167.129 99.0013 167.465 99.104 167.857 99.104C168.193 99.104 168.473 99.0527 168.697 98.95C168.921 98.8473 169.103 98.7353 169.243 98.614C169.383 98.4833 169.477 98.3853 169.523 98.32C169.607 98.1987 169.673 98.1287 169.719 98.11C169.766 98.082 169.841 98.068 169.943 98.068H170.615C170.709 98.068 170.783 98.096 170.839 98.152C170.905 98.1987 170.933 98.2687 170.923 98.362C170.914 98.502 170.839 98.6747 170.699 98.88C170.559 99.076 170.359 99.272 170.097 99.468C169.836 99.664 169.519 99.8273 169.145 99.958C168.772 100.079 168.343 100.14 167.857 100.14ZM165.953 95.828H169.789V95.786C169.789 95.366 169.71 94.9927 169.551 94.666C169.402 94.3393 169.183 94.0827 168.893 93.896C168.604 93.7 168.259 93.602 167.857 93.602C167.456 93.602 167.111 93.7 166.821 93.896C166.541 94.0827 166.327 94.3393 166.177 94.666C166.028 94.9927 165.953 95.366 165.953 95.786V95.828ZM173.115 100C173.022 100 172.943 99.972 172.877 99.916C172.821 99.8507 172.793 99.7713 172.793 99.678V93.056C172.793 92.9627 172.821 92.8833 172.877 92.818C172.943 92.7527 173.022 92.72 173.115 92.72H173.759C173.853 92.72 173.932 92.7527 173.997 92.818C174.063 92.8833 174.095 92.9627 174.095 93.056V93.672C174.282 93.3547 174.539 93.1167 174.865 92.958C175.192 92.7993 175.584 92.72 176.041 92.72H176.601C176.695 92.72 176.769 92.7527 176.825 92.818C176.881 92.874 176.909 92.9487 176.909 93.042V93.616C176.909 93.7093 176.881 93.784 176.825 93.84C176.769 93.896 176.695 93.924 176.601 93.924H175.761C175.257 93.924 174.861 94.0733 174.571 94.372C174.282 94.6613 174.137 95.058 174.137 95.562V99.678C174.137 99.7713 174.105 99.8507 174.039 99.916C173.974 99.972 173.895 100 173.801 100H173.115ZM180.646 100C180.506 100 180.394 99.9673 180.31 99.902C180.235 99.8367 180.174 99.7527 180.128 99.65L177.538 93.154C177.519 93.1073 177.51 93.0607 177.51 93.014C177.51 92.93 177.538 92.86 177.594 92.804C177.65 92.748 177.72 92.72 177.804 92.72H178.476C178.578 92.72 178.658 92.748 178.714 92.804C178.77 92.86 178.802 92.9113 178.812 92.958L180.954 98.474L183.082 92.958C183.1 92.9113 183.133 92.86 183.18 92.804C183.236 92.748 183.315 92.72 183.418 92.72H184.104C184.178 92.72 184.244 92.748 184.3 92.804C184.365 92.86 184.398 92.93 184.398 93.014C184.398 93.0607 184.388 93.1073 184.37 93.154L181.766 99.65C181.728 99.7527 181.668 99.8367 181.584 99.902C181.509 99.9673 181.397 100 181.248 100H180.646ZM186.186 100C186.092 100 186.013 99.972 185.948 99.916C185.892 99.8507 185.864 99.7713 185.864 99.678V93.042C185.864 92.9487 185.892 92.874 185.948 92.818C186.013 92.7527 186.092 92.72 186.186 92.72H186.858C186.951 92.72 187.026 92.7527 187.082 92.818C187.138 92.874 187.166 92.9487 187.166 93.042V99.678C187.166 99.7713 187.138 99.8507 187.082 99.916C187.026 99.972 186.951 100 186.858 100H186.186ZM186.074 91.362C185.98 91.362 185.901 91.334 185.836 91.278C185.78 91.2127 185.752 91.1333 185.752 91.04V90.284C185.752 90.1907 185.78 90.116 185.836 90.06C185.901 89.9947 185.98 89.962 186.074 89.962H186.956C187.049 89.962 187.124 89.9947 187.18 90.06C187.245 90.116 187.278 90.1907 187.278 90.284V91.04C187.278 91.1333 187.245 91.2127 187.18 91.278C187.124 91.334 187.049 91.362 186.956 91.362H186.074ZM192.222 100.14C191.559 100.14 190.985 100.014 190.5 99.762C190.024 99.5007 189.655 99.132 189.394 98.656C189.132 98.1707 188.992 97.592 188.974 96.92C188.964 96.78 188.96 96.5933 188.96 96.36C188.96 96.1267 188.964 95.94 188.974 95.8C188.992 95.128 189.132 94.554 189.394 94.078C189.655 93.5927 190.024 93.224 190.5 92.972C190.985 92.7107 191.559 92.58 192.222 92.58C192.763 92.58 193.225 92.6547 193.608 92.804C194 92.9533 194.322 93.1447 194.574 93.378C194.826 93.6113 195.012 93.8633 195.134 94.134C195.264 94.4047 195.334 94.6613 195.344 94.904C195.353 94.9973 195.325 95.072 195.26 95.128C195.194 95.184 195.115 95.212 195.022 95.212H194.35C194.256 95.212 194.186 95.1933 194.14 95.156C194.093 95.1093 194.046 95.0347 194 94.932C193.832 94.4747 193.603 94.1527 193.314 93.966C193.024 93.7793 192.665 93.686 192.236 93.686C191.676 93.686 191.218 93.8587 190.864 94.204C190.518 94.5493 190.332 95.1047 190.304 95.87C190.294 96.206 190.294 96.5327 190.304 96.85C190.332 97.6247 190.518 98.1847 190.864 98.53C191.218 98.866 191.676 99.034 192.236 99.034C192.665 99.034 193.024 98.9407 193.314 98.754C193.603 98.5673 193.832 98.2453 194 97.788C194.046 97.6853 194.093 97.6153 194.14 97.578C194.186 97.5313 194.256 97.508 194.35 97.508H195.022C195.115 97.508 195.194 97.536 195.26 97.592C195.325 97.648 195.353 97.7227 195.344 97.816C195.334 98.012 195.292 98.2127 195.218 98.418C195.143 98.6233 195.022 98.8333 194.854 99.048C194.695 99.2533 194.494 99.44 194.252 99.608C194.009 99.7667 193.715 99.8973 193.37 100C193.034 100.093 192.651 100.14 192.222 100.14ZM199.904 100.14C198.943 100.14 198.178 99.846 197.608 99.258C197.039 98.6607 196.726 97.8487 196.67 96.822C196.661 96.7007 196.656 96.5467 196.656 96.36C196.656 96.164 196.661 96.0053 196.67 95.884C196.708 95.2213 196.862 94.6427 197.132 94.148C197.403 93.644 197.772 93.2567 198.238 92.986C198.714 92.7153 199.27 92.58 199.904 92.58C200.614 92.58 201.206 92.7293 201.682 93.028C202.168 93.3267 202.536 93.7513 202.788 94.302C203.04 94.8527 203.166 95.4967 203.166 96.234V96.472C203.166 96.5747 203.134 96.654 203.068 96.71C203.012 96.766 202.938 96.794 202.844 96.794H198C198 96.8033 198 96.822 198 96.85C198 96.878 198 96.9013 198 96.92C198.019 97.3027 198.103 97.662 198.252 97.998C198.402 98.3247 198.616 98.5907 198.896 98.796C199.176 99.0013 199.512 99.104 199.904 99.104C200.24 99.104 200.52 99.0527 200.744 98.95C200.968 98.8473 201.15 98.7353 201.29 98.614C201.43 98.4833 201.524 98.3853 201.57 98.32C201.654 98.1987 201.72 98.1287 201.766 98.11C201.813 98.082 201.888 98.068 201.99 98.068H202.662C202.756 98.068 202.83 98.096 202.886 98.152C202.952 98.1987 202.98 98.2687 202.97 98.362C202.961 98.502 202.886 98.6747 202.746 98.88C202.606 99.076 202.406 99.272 202.144 99.468C201.883 99.664 201.566 99.8273 201.192 99.958C200.819 100.079 200.39 100.14 199.904 100.14ZM198 95.828H201.836V95.786C201.836 95.366 201.757 94.9927 201.598 94.666C201.449 94.3393 201.23 94.0827 200.94 93.896C200.651 93.7 200.306 93.602 199.904 93.602C199.503 93.602 199.158 93.7 198.868 93.896C198.588 94.0827 198.374 94.3393 198.224 94.666C198.075 94.9927 198 95.366 198 95.786V95.828ZM207.36 100.14C206.838 100.14 206.39 100.075 206.016 99.944C205.643 99.8133 205.34 99.6547 205.106 99.468C204.873 99.2813 204.696 99.0947 204.574 98.908C204.462 98.7213 204.402 98.572 204.392 98.46C204.383 98.3573 204.416 98.278 204.49 98.222C204.565 98.166 204.64 98.138 204.714 98.138H205.33C205.386 98.138 205.428 98.1473 205.456 98.166C205.494 98.1753 205.54 98.2127 205.596 98.278C205.718 98.4087 205.853 98.5393 206.002 98.67C206.152 98.8007 206.334 98.908 206.548 98.992C206.772 99.076 207.048 99.118 207.374 99.118C207.85 99.118 208.242 99.0293 208.55 98.852C208.858 98.6653 209.012 98.3947 209.012 98.04C209.012 97.8067 208.947 97.62 208.816 97.48C208.695 97.34 208.471 97.214 208.144 97.102C207.827 96.99 207.388 96.8733 206.828 96.752C206.268 96.6213 205.825 96.4627 205.498 96.276C205.172 96.08 204.938 95.8513 204.798 95.59C204.658 95.3193 204.588 95.016 204.588 94.68C204.588 94.3347 204.691 94.0033 204.896 93.686C205.102 93.3593 205.4 93.0933 205.792 92.888C206.194 92.6827 206.693 92.58 207.29 92.58C207.776 92.58 208.191 92.6407 208.536 92.762C208.882 92.8833 209.166 93.0373 209.39 93.224C209.614 93.4013 209.782 93.5787 209.894 93.756C210.006 93.9333 210.067 94.0827 210.076 94.204C210.086 94.2973 210.058 94.3767 209.992 94.442C209.927 94.498 209.852 94.526 209.768 94.526H209.18C209.115 94.526 209.059 94.512 209.012 94.484C208.975 94.456 208.938 94.4233 208.9 94.386C208.807 94.2647 208.695 94.1433 208.564 94.022C208.443 93.9007 208.28 93.8027 208.074 93.728C207.878 93.644 207.617 93.602 207.29 93.602C206.824 93.602 206.474 93.7 206.24 93.896C206.007 94.092 205.89 94.3393 205.89 94.638C205.89 94.8153 205.942 94.974 206.044 95.114C206.147 95.254 206.343 95.38 206.632 95.492C206.922 95.604 207.351 95.7253 207.92 95.856C208.536 95.9773 209.022 96.1407 209.376 96.346C209.731 96.5513 209.983 96.7893 210.132 97.06C210.282 97.3307 210.356 97.6433 210.356 97.998C210.356 98.39 210.24 98.7493 210.006 99.076C209.782 99.4027 209.446 99.664 208.998 99.86C208.56 100.047 208.014 100.14 207.36 100.14Z" fill="#4F5665"/>
<path d="M10.486 99.7299C10.3547 99.7302 10.2247 99.7045 10.1034 99.6544C9.98204 99.6043 9.87181 99.5307 9.77899 99.4379L5.53699 95.1949C5.44141 95.1027 5.36516 94.9924 5.31266 94.8705C5.26017 94.7485 5.23249 94.6173 5.23125 94.4845C5.23 94.3517 5.25521 94.22 5.3054 94.0971C5.3556 93.9742 5.42977 93.8625 5.52359 93.7685C5.61742 93.6746 5.72902 93.6002 5.85188 93.5499C5.97474 93.4995 6.1064 93.4741 6.23918 93.4752C6.37195 93.4762 6.50319 93.5037 6.62523 93.556C6.74727 93.6083 6.85767 93.6845 6.94999 93.7799L10.485 97.3149L16.85 90.9519C17.0375 90.7643 17.2919 90.6588 17.5571 90.6587C17.8224 90.6586 18.0768 90.7639 18.2645 90.9514C18.4521 91.1389 18.5576 91.3933 18.5577 91.6585C18.5578 91.9238 18.4525 92.1783 18.265 92.3659L11.193 99.4379C11.1002 99.5307 10.9899 99.6043 10.8686 99.6544C10.7473 99.7045 10.6173 99.7302 10.486 99.7299Z" fill="#2FAB73"/>
<path d="M46.0805 140C45.9779 140 45.8985 139.972 45.8425 139.916C45.7865 139.851 45.7585 139.771 45.7585 139.678V130.536C45.7585 130.433 45.7865 130.354 45.8425 130.298C45.8985 130.233 45.9779 130.2 46.0805 130.2H51.7925C51.8952 130.2 51.9745 130.233 52.0305 130.298C52.0865 130.354 52.1145 130.433 52.1145 130.536V131.096C52.1145 131.199 52.0865 131.278 52.0305 131.334C51.9745 131.39 51.8952 131.418 51.7925 131.418H47.1165V134.68H51.5125C51.6152 134.68 51.6945 134.713 51.7505 134.778C51.8065 134.834 51.8345 134.913 51.8345 135.016V135.576C51.8345 135.669 51.8065 135.749 51.7505 135.814C51.6945 135.87 51.6152 135.898 51.5125 135.898H47.1165V139.678C47.1165 139.771 47.0839 139.851 47.0185 139.916C46.9625 139.972 46.8832 140 46.7805 140H46.0805ZM53.8829 140C53.7896 140 53.7102 139.972 53.6449 139.916C53.5889 139.851 53.5609 139.771 53.5609 139.678V133.056C53.5609 132.963 53.5889 132.883 53.6449 132.818C53.7102 132.753 53.7896 132.72 53.8829 132.72H54.5269C54.6202 132.72 54.6996 132.753 54.7649 132.818C54.8302 132.883 54.8629 132.963 54.8629 133.056V133.672C55.0496 133.355 55.3062 133.117 55.6329 132.958C55.9596 132.799 56.3516 132.72 56.8089 132.72H57.3689C57.4622 132.72 57.5369 132.753 57.5929 132.818C57.6489 132.874 57.6769 132.949 57.6769 133.042V133.616C57.6769 133.709 57.6489 133.784 57.5929 133.84C57.5369 133.896 57.4622 133.924 57.3689 133.924H56.5289C56.0249 133.924 55.6282 134.073 55.3389 134.372C55.0496 134.661 54.9049 135.058 54.9049 135.562V139.678C54.9049 139.771 54.8722 139.851 54.8069 139.916C54.7416 139.972 54.6622 140 54.5689 140H53.8829ZM61.6405 140.14C60.6792 140.14 59.9139 139.846 59.3445 139.258C58.7752 138.661 58.4625 137.849 58.4065 136.822C58.3972 136.701 58.3925 136.547 58.3925 136.36C58.3925 136.164 58.3972 136.005 58.4065 135.884C58.4439 135.221 58.5979 134.643 58.8685 134.148C59.1392 133.644 59.5079 133.257 59.9745 132.986C60.4505 132.715 61.0059 132.58 61.6405 132.58C62.3499 132.58 62.9425 132.729 63.4185 133.028C63.9039 133.327 64.2725 133.751 64.5245 134.302C64.7765 134.853 64.9025 135.497 64.9025 136.234V136.472C64.9025 136.575 64.8699 136.654 64.8045 136.71C64.7485 136.766 64.6739 136.794 64.5805 136.794H59.7365C59.7365 136.803 59.7365 136.822 59.7365 136.85C59.7365 136.878 59.7365 136.901 59.7365 136.92C59.7552 137.303 59.8392 137.662 59.9885 137.998C60.1379 138.325 60.3525 138.591 60.6325 138.796C60.9125 139.001 61.2485 139.104 61.6405 139.104C61.9765 139.104 62.2565 139.053 62.4805 138.95C62.7045 138.847 62.8865 138.735 63.0265 138.614C63.1665 138.483 63.2599 138.385 63.3065 138.32C63.3905 138.199 63.4559 138.129 63.5025 138.11C63.5492 138.082 63.6239 138.068 63.7265 138.068H64.3985C64.4919 138.068 64.5665 138.096 64.6225 138.152C64.6879 138.199 64.7159 138.269 64.7065 138.362C64.6972 138.502 64.6225 138.675 64.4825 138.88C64.3425 139.076 64.1419 139.272 63.8805 139.468C63.6192 139.664 63.3019 139.827 62.9285 139.958C62.5552 140.079 62.1259 140.14 61.6405 140.14ZM59.7365 135.828H63.5725V135.786C63.5725 135.366 63.4932 134.993 63.3345 134.666C63.1852 134.339 62.9659 134.083 62.6765 133.896C62.3872 133.7 62.0419 133.602 61.6405 133.602C61.2392 133.602 60.8939 133.7 60.6045 133.896C60.3245 134.083 60.1099 134.339 59.9605 134.666C59.8112 134.993 59.7365 135.366 59.7365 135.786V135.828ZM69.4745 140.14C68.5132 140.14 67.7479 139.846 67.1785 139.258C66.6092 138.661 66.2965 137.849 66.2405 136.822C66.2312 136.701 66.2265 136.547 66.2265 136.36C66.2265 136.164 66.2312 136.005 66.2405 135.884C66.2779 135.221 66.4319 134.643 66.7025 134.148C66.9732 133.644 67.3419 133.257 67.8085 132.986C68.2845 132.715 68.8399 132.58 69.4745 132.58C70.1839 132.58 70.7765 132.729 71.2525 133.028C71.7379 133.327 72.1065 133.751 72.3585 134.302C72.6105 134.853 72.7365 135.497 72.7365 136.234V136.472C72.7365 136.575 72.7039 136.654 72.6385 136.71C72.5825 136.766 72.5079 136.794 72.4145 136.794H67.5705C67.5705 136.803 67.5705 136.822 67.5705 136.85C67.5705 136.878 67.5705 136.901 67.5705 136.92C67.5892 137.303 67.6732 137.662 67.8225 137.998C67.9719 138.325 68.1865 138.591 68.4665 138.796C68.7465 139.001 69.0825 139.104 69.4745 139.104C69.8105 139.104 70.0905 139.053 70.3145 138.95C70.5385 138.847 70.7205 138.735 70.8605 138.614C71.0005 138.483 71.0939 138.385 71.1405 138.32C71.2245 138.199 71.2899 138.129 71.3365 138.11C71.3832 138.082 71.4579 138.068 71.5605 138.068H72.2325C72.3259 138.068 72.4005 138.096 72.4565 138.152C72.5219 138.199 72.5499 138.269 72.5405 138.362C72.5312 138.502 72.4565 138.675 72.3165 138.88C72.1765 139.076 71.9759 139.272 71.7145 139.468C71.4532 139.664 71.1359 139.827 70.7625 139.958C70.3892 140.079 69.9599 140.14 69.4745 140.14ZM67.5705 135.828H71.4065V135.786C71.4065 135.366 71.3272 134.993 71.1685 134.666C71.0192 134.339 70.7999 134.083 70.5105 133.896C70.2212 133.7 69.8759 133.602 69.4745 133.602C69.0732 133.602 68.7279 133.7 68.4385 133.896C68.1585 134.083 67.9439 134.339 67.7945 134.666C67.6452 134.993 67.5705 135.366 67.5705 135.786V135.828ZM80.7402 140.14C79.7788 140.14 79.0135 139.846 78.4442 139.258C77.8748 138.661 77.5622 137.849 77.5062 136.822C77.4968 136.701 77.4922 136.547 77.4922 136.36C77.4922 136.164 77.4968 136.005 77.5062 135.884C77.5435 135.221 77.6975 134.643 77.9682 134.148C78.2388 133.644 78.6075 133.257 79.0742 132.986C79.5502 132.715 80.1055 132.58 80.7402 132.58C81.4495 132.58 82.0422 132.729 82.5182 133.028C83.0035 133.327 83.3722 133.751 83.6242 134.302C83.8762 134.853 84.0022 135.497 84.0022 136.234V136.472C84.0022 136.575 83.9695 136.654 83.9042 136.71C83.8482 136.766 83.7735 136.794 83.6802 136.794H78.8362C78.8362 136.803 78.8362 136.822 78.8362 136.85C78.8362 136.878 78.8362 136.901 78.8362 136.92C78.8548 137.303 78.9388 137.662 79.0882 137.998C79.2375 138.325 79.4522 138.591 79.7322 138.796C80.0122 139.001 80.3482 139.104 80.7402 139.104C81.0762 139.104 81.3562 139.053 81.5802 138.95C81.8042 138.847 81.9862 138.735 82.1262 138.614C82.2662 138.483 82.3595 138.385 82.4062 138.32C82.4902 138.199 82.5555 138.129 82.6022 138.11C82.6488 138.082 82.7235 138.068 82.8262 138.068H83.4982C83.5915 138.068 83.6662 138.096 83.7222 138.152C83.7875 138.199 83.8155 138.269 83.8062 138.362C83.7968 138.502 83.7222 138.675 83.5822 138.88C83.4422 139.076 83.2415 139.272 82.9802 139.468C82.7188 139.664 82.4015 139.827 82.0282 139.958C81.6548 140.079 81.2255 140.14 80.7402 140.14ZM78.8362 135.828H82.6722V135.786C82.6722 135.366 82.5928 134.993 82.4342 134.666C82.2848 134.339 82.0655 134.083 81.7762 133.896C81.4868 133.7 81.1415 133.602 80.7402 133.602C80.3388 133.602 79.9935 133.7 79.7042 133.896C79.4242 134.083 79.2095 134.339 79.0602 134.666C78.9108 134.993 78.8362 135.366 78.8362 135.786V135.828ZM85.1897 140C85.1151 140 85.0451 139.972 84.9797 139.916C84.9237 139.86 84.8957 139.79 84.8957 139.706C84.8957 139.678 84.9004 139.645 84.9097 139.608C84.9284 139.561 84.9564 139.51 84.9937 139.454L87.4297 136.276L85.1477 133.266C85.1104 133.21 85.0824 133.163 85.0637 133.126C85.0544 133.089 85.0497 133.051 85.0497 133.014C85.0497 132.93 85.0777 132.86 85.1337 132.804C85.1897 132.748 85.2597 132.72 85.3437 132.72H86.0577C86.1604 132.72 86.2351 132.748 86.2817 132.804C86.3377 132.851 86.3844 132.897 86.4217 132.944L88.2837 135.366L90.1457 132.958C90.1831 132.911 90.2251 132.86 90.2717 132.804C90.3277 132.748 90.4071 132.72 90.5097 132.72H91.1957C91.2797 132.72 91.3497 132.748 91.4057 132.804C91.4617 132.86 91.4897 132.93 91.4897 133.014C91.4897 133.051 91.4804 133.089 91.4617 133.126C91.4524 133.163 91.4291 133.21 91.3917 133.266L89.0817 136.304L91.5177 139.454C91.5551 139.51 91.5784 139.557 91.5877 139.594C91.6064 139.631 91.6157 139.669 91.6157 139.706C91.6157 139.79 91.5877 139.86 91.5317 139.916C91.4757 139.972 91.4057 140 91.3217 140H90.5797C90.4864 140 90.4117 139.977 90.3557 139.93C90.2997 139.883 90.2531 139.837 90.2157 139.79L88.2417 137.228L86.2677 139.79C86.2304 139.827 86.1837 139.874 86.1277 139.93C86.0811 139.977 86.0064 140 85.9037 140H85.1897ZM95.9146 140C95.392 140 94.9673 139.902 94.6406 139.706C94.314 139.501 94.076 139.216 93.9266 138.852C93.7773 138.479 93.7026 138.04 93.7026 137.536V133.84H92.6106C92.5173 133.84 92.438 133.812 92.3726 133.756C92.3166 133.691 92.2886 133.611 92.2886 133.518V133.042C92.2886 132.949 92.3166 132.874 92.3726 132.818C92.438 132.753 92.5173 132.72 92.6106 132.72H93.7026V130.382C93.7026 130.289 93.7306 130.214 93.7866 130.158C93.852 130.093 93.9313 130.06 94.0246 130.06H94.6826C94.776 130.06 94.8506 130.093 94.9066 130.158C94.972 130.214 95.0046 130.289 95.0046 130.382V132.72H96.7406C96.834 132.72 96.9086 132.753 96.9646 132.818C97.03 132.874 97.0626 132.949 97.0626 133.042V133.518C97.0626 133.611 97.03 133.691 96.9646 133.756C96.9086 133.812 96.834 133.84 96.7406 133.84H95.0046V137.438C95.0046 137.877 95.0793 138.222 95.2286 138.474C95.378 138.726 95.644 138.852 96.0266 138.852H96.8806C96.974 138.852 97.0486 138.885 97.1046 138.95C97.17 139.006 97.2026 139.081 97.2026 139.174V139.678C97.2026 139.771 97.17 139.851 97.1046 139.916C97.0486 139.972 96.974 140 96.8806 140H95.9146ZM101.439 140.14C100.478 140.14 99.7127 139.846 99.1434 139.258C98.574 138.661 98.2614 137.849 98.2054 136.822C98.196 136.701 98.1914 136.547 98.1914 136.36C98.1914 136.164 98.196 136.005 98.2054 135.884C98.2427 135.221 98.3967 134.643 98.6674 134.148C98.938 133.644 99.3067 133.257 99.7734 132.986C100.249 132.715 100.805 132.58 101.439 132.58C102.149 132.58 102.741 132.729 103.217 133.028C103.703 133.327 104.071 133.751 104.323 134.302C104.575 134.853 104.701 135.497 104.701 136.234V136.472C104.701 136.575 104.669 136.654 104.603 136.71C104.547 136.766 104.473 136.794 104.379 136.794H99.5354C99.5354 136.803 99.5354 136.822 99.5354 136.85C99.5354 136.878 99.5354 136.901 99.5354 136.92C99.554 137.303 99.638 137.662 99.7874 137.998C99.9367 138.325 100.151 138.591 100.431 138.796C100.711 139.001 101.047 139.104 101.439 139.104C101.775 139.104 102.055 139.053 102.279 138.95C102.503 138.847 102.685 138.735 102.825 138.614C102.965 138.483 103.059 138.385 103.105 138.32C103.189 138.199 103.255 138.129 103.301 138.11C103.348 138.082 103.423 138.068 103.525 138.068H104.197C104.291 138.068 104.365 138.096 104.421 138.152C104.487 138.199 104.515 138.269 104.505 138.362C104.496 138.502 104.421 138.675 104.281 138.88C104.141 139.076 103.941 139.272 103.679 139.468C103.418 139.664 103.101 139.827 102.727 139.958C102.354 140.079 101.925 140.14 101.439 140.14ZM99.5354 135.828H103.371V135.786C103.371 135.366 103.292 134.993 103.133 134.666C102.984 134.339 102.765 134.083 102.475 133.896C102.186 133.7 101.841 133.602 101.439 133.602C101.038 133.602 100.693 133.7 100.403 133.896C100.123 134.083 99.9087 134.339 99.7594 134.666C99.61 134.993 99.5354 135.366 99.5354 135.786V135.828ZM106.697 140C106.604 140 106.525 139.972 106.459 139.916C106.403 139.851 106.375 139.771 106.375 139.678V133.042C106.375 132.949 106.403 132.874 106.459 132.818C106.525 132.753 106.604 132.72 106.697 132.72H107.355C107.449 132.72 107.523 132.753 107.579 132.818C107.645 132.874 107.677 132.949 107.677 133.042V133.658C107.92 133.341 108.223 133.084 108.587 132.888C108.961 132.683 109.437 132.58 110.015 132.58C110.622 132.58 111.135 132.715 111.555 132.986C111.985 133.247 112.307 133.616 112.521 134.092C112.736 134.559 112.843 135.105 112.843 135.73V139.678C112.843 139.771 112.815 139.851 112.759 139.916C112.703 139.972 112.629 140 112.535 140H111.835C111.742 140 111.663 139.972 111.597 139.916C111.541 139.851 111.513 139.771 111.513 139.678V135.8C111.513 135.147 111.355 134.638 111.037 134.274C110.72 133.901 110.253 133.714 109.637 133.714C109.059 133.714 108.592 133.901 108.237 134.274C107.892 134.638 107.719 135.147 107.719 135.8V139.678C107.719 139.771 107.687 139.851 107.621 139.916C107.565 139.972 107.491 140 107.397 140H106.697ZM117.526 140.14C117.012 140.14 116.569 140.051 116.196 139.874C115.822 139.687 115.514 139.44 115.272 139.132C115.038 138.815 114.861 138.455 114.74 138.054C114.628 137.653 114.562 137.228 114.544 136.78C114.534 136.631 114.53 136.491 114.53 136.36C114.53 136.229 114.534 136.089 114.544 135.94C114.562 135.501 114.628 135.081 114.74 134.68C114.861 134.279 115.038 133.919 115.272 133.602C115.514 133.285 115.822 133.037 116.196 132.86C116.569 132.673 117.012 132.58 117.526 132.58C118.076 132.58 118.534 132.678 118.898 132.874C119.262 133.07 119.56 133.313 119.794 133.602V130.382C119.794 130.289 119.822 130.214 119.878 130.158C119.943 130.093 120.022 130.06 120.116 130.06H120.788C120.881 130.06 120.956 130.093 121.012 130.158C121.077 130.214 121.11 130.289 121.11 130.382V139.678C121.11 139.771 121.077 139.851 121.012 139.916C120.956 139.972 120.881 140 120.788 140H120.158C120.055 140 119.976 139.972 119.92 139.916C119.864 139.851 119.836 139.771 119.836 139.678V139.09C119.602 139.389 119.299 139.641 118.926 139.846C118.552 140.042 118.086 140.14 117.526 140.14ZM117.82 139.006C118.286 139.006 118.66 138.899 118.94 138.684C119.22 138.469 119.43 138.199 119.57 137.872C119.71 137.536 119.784 137.195 119.794 136.85C119.803 136.701 119.808 136.523 119.808 136.318C119.808 136.103 119.803 135.921 119.794 135.772C119.784 135.445 119.705 135.123 119.556 134.806C119.416 134.489 119.201 134.227 118.912 134.022C118.632 133.817 118.268 133.714 117.82 133.714C117.344 133.714 116.966 133.821 116.686 134.036C116.406 134.241 116.205 134.517 116.084 134.862C115.962 135.198 115.892 135.562 115.874 135.954C115.864 136.225 115.864 136.495 115.874 136.766C115.892 137.158 115.962 137.527 116.084 137.872C116.205 138.208 116.406 138.483 116.686 138.698C116.966 138.903 117.344 139.006 117.82 139.006ZM129.451 140C129.358 140 129.279 139.972 129.213 139.916C129.157 139.851 129.129 139.771 129.129 139.678V131.838L126.805 133.63C126.731 133.686 126.651 133.709 126.567 133.7C126.483 133.691 126.413 133.649 126.357 133.574L125.993 133.112C125.937 133.028 125.914 132.944 125.923 132.86C125.942 132.776 125.989 132.706 126.063 132.65L129.115 130.298C129.181 130.251 129.241 130.223 129.297 130.214C129.353 130.205 129.414 130.2 129.479 130.2H130.193C130.287 130.2 130.361 130.233 130.417 130.298C130.473 130.354 130.501 130.429 130.501 130.522V139.678C130.501 139.771 130.473 139.851 130.417 139.916C130.361 139.972 130.287 140 130.193 140H129.451ZM136.547 140C136.454 140 136.375 139.972 136.309 139.916C136.253 139.851 136.225 139.771 136.225 139.678V130.536C136.225 130.433 136.253 130.354 136.309 130.298C136.375 130.233 136.454 130.2 136.547 130.2H137.247C137.359 130.2 137.443 130.228 137.499 130.284C137.555 130.34 137.588 130.387 137.597 130.424L140.565 136.08L143.547 130.424C143.566 130.387 143.599 130.34 143.645 130.284C143.701 130.228 143.785 130.2 143.897 130.2H144.583C144.686 130.2 144.765 130.233 144.821 130.298C144.887 130.354 144.919 130.433 144.919 130.536V139.678C144.919 139.771 144.887 139.851 144.821 139.916C144.765 139.972 144.686 140 144.583 140H143.897C143.804 140 143.725 139.972 143.659 139.916C143.603 139.851 143.575 139.771 143.575 139.678V132.79L141.237 137.354C141.2 137.447 141.144 137.522 141.069 137.578C140.995 137.625 140.901 137.648 140.789 137.648H140.355C140.234 137.648 140.136 137.625 140.061 137.578C139.996 137.522 139.94 137.447 139.893 137.354L137.555 132.79V139.678C137.555 139.771 137.523 139.851 137.457 139.916C137.401 139.972 137.327 140 137.233 140H136.547ZM150.141 140.14C149.431 140.14 148.839 140.005 148.363 139.734C147.887 139.463 147.523 139.09 147.271 138.614C147.019 138.129 146.879 137.578 146.851 136.962C146.841 136.803 146.837 136.603 146.837 136.36C146.837 136.108 146.841 135.907 146.851 135.758C146.879 135.133 147.019 134.582 147.271 134.106C147.532 133.63 147.901 133.257 148.377 132.986C148.853 132.715 149.441 132.58 150.141 132.58C150.841 132.58 151.429 132.715 151.905 132.986C152.381 133.257 152.745 133.63 152.997 134.106C153.258 134.582 153.403 135.133 153.431 135.758C153.44 135.907 153.445 136.108 153.445 136.36C153.445 136.603 153.44 136.803 153.431 136.962C153.403 137.578 153.263 138.129 153.011 138.614C152.759 139.09 152.395 139.463 151.919 139.734C151.443 140.005 150.85 140.14 150.141 140.14ZM150.141 139.062C150.719 139.062 151.181 138.88 151.527 138.516C151.872 138.143 152.059 137.601 152.087 136.892C152.096 136.752 152.101 136.575 152.101 136.36C152.101 136.145 152.096 135.968 152.087 135.828C152.059 135.119 151.872 134.582 151.527 134.218C151.181 133.845 150.719 133.658 150.141 133.658C149.562 133.658 149.095 133.845 148.741 134.218C148.395 134.582 148.213 135.119 148.195 135.828C148.185 135.968 148.181 136.145 148.181 136.36C148.181 136.575 148.185 136.752 148.195 136.892C148.213 137.601 148.395 138.143 148.741 138.516C149.095 138.88 149.562 139.062 150.141 139.062ZM155.52 140C155.426 140 155.347 139.972 155.282 139.916C155.226 139.851 155.198 139.771 155.198 139.678V133.042C155.198 132.949 155.226 132.874 155.282 132.818C155.347 132.753 155.426 132.72 155.52 132.72H156.178C156.271 132.72 156.346 132.753 156.402 132.818C156.467 132.874 156.5 132.949 156.5 133.042V133.658C156.742 133.341 157.046 133.084 157.41 132.888C157.783 132.683 158.259 132.58 158.838 132.58C159.444 132.58 159.958 132.715 160.378 132.986C160.807 133.247 161.129 133.616 161.344 134.092C161.558 134.559 161.666 135.105 161.666 135.73V139.678C161.666 139.771 161.638 139.851 161.582 139.916C161.526 139.972 161.451 140 161.358 140H160.658C160.564 140 160.485 139.972 160.42 139.916C160.364 139.851 160.336 139.771 160.336 139.678V135.8C160.336 135.147 160.177 134.638 159.86 134.274C159.542 133.901 159.076 133.714 158.46 133.714C157.881 133.714 157.414 133.901 157.06 134.274C156.714 134.638 156.542 135.147 156.542 135.8V139.678C156.542 139.771 156.509 139.851 156.444 139.916C156.388 139.972 156.313 140 156.22 140H155.52ZM166.434 140C165.911 140 165.487 139.902 165.16 139.706C164.833 139.501 164.595 139.216 164.446 138.852C164.297 138.479 164.222 138.04 164.222 137.536V133.84H163.13C163.037 133.84 162.957 133.812 162.892 133.756C162.836 133.691 162.808 133.611 162.808 133.518V133.042C162.808 132.949 162.836 132.874 162.892 132.818C162.957 132.753 163.037 132.72 163.13 132.72H164.222V130.382C164.222 130.289 164.25 130.214 164.306 130.158C164.371 130.093 164.451 130.06 164.544 130.06H165.202C165.295 130.06 165.37 130.093 165.426 130.158C165.491 130.214 165.524 130.289 165.524 130.382V132.72H167.26C167.353 132.72 167.428 132.753 167.484 132.818C167.549 132.874 167.582 132.949 167.582 133.042V133.518C167.582 133.611 167.549 133.691 167.484 133.756C167.428 133.812 167.353 133.84 167.26 133.84H165.524V137.438C165.524 137.877 165.599 138.222 165.748 138.474C165.897 138.726 166.163 138.852 166.546 138.852H167.4C167.493 138.852 167.568 138.885 167.624 138.95C167.689 139.006 167.722 139.081 167.722 139.174V139.678C167.722 139.771 167.689 139.851 167.624 139.916C167.568 139.972 167.493 140 167.4 140H166.434ZM169.397 140C169.304 140 169.224 139.972 169.159 139.916C169.103 139.851 169.075 139.771 169.075 139.678V130.382C169.075 130.289 169.103 130.214 169.159 130.158C169.224 130.093 169.304 130.06 169.397 130.06H170.097C170.2 130.06 170.279 130.093 170.335 130.158C170.391 130.214 170.419 130.289 170.419 130.382V133.644C170.671 133.327 170.979 133.07 171.343 132.874C171.707 132.678 172.169 132.58 172.729 132.58C173.336 132.58 173.849 132.715 174.269 132.986C174.698 133.247 175.02 133.616 175.235 134.092C175.459 134.559 175.571 135.105 175.571 135.73V139.678C175.571 139.771 175.543 139.851 175.487 139.916C175.431 139.972 175.352 140 175.249 140H174.549C174.456 140 174.376 139.972 174.311 139.916C174.255 139.851 174.227 139.771 174.227 139.678V135.8C174.227 135.147 174.068 134.638 173.751 134.274C173.434 133.901 172.967 133.714 172.351 133.714C171.772 133.714 171.306 133.901 170.951 134.274C170.596 134.638 170.419 135.147 170.419 135.8V139.678C170.419 139.771 170.391 139.851 170.335 139.916C170.279 139.972 170.2 140 170.097 140H169.397Z" fill="#4F5665"/>
<path d="M10.486 139.73C10.3547 139.73 10.2247 139.705 10.1034 139.654C9.98204 139.604 9.87181 139.531 9.77899 139.438L5.53699 135.195C5.44141 135.103 5.36516 134.992 5.31266 134.87C5.26017 134.748 5.23249 134.617 5.23125 134.485C5.23 134.352 5.25521 134.22 5.3054 134.097C5.3556 133.974 5.42977 133.862 5.52359 133.769C5.61742 133.675 5.72902 133.6 5.85188 133.55C5.97474 133.499 6.1064 133.474 6.23918 133.475C6.37195 133.476 6.50319 133.504 6.62523 133.556C6.74727 133.608 6.85767 133.684 6.94999 133.78L10.485 137.315L16.85 130.952C17.0375 130.764 17.2919 130.659 17.5571 130.659C17.8224 130.659 18.0768 130.764 18.2645 130.951C18.4521 131.139 18.5576 131.393 18.5577 131.659C18.5578 131.924 18.4525 132.178 18.265 132.366L11.193 139.438C11.1002 139.531 10.9899 139.604 10.8686 139.654C10.7473 139.705 10.6173 139.73 10.486 139.73Z" fill="#2FAB73"/>
<path d="M49.4543 20.14C48.6703 20.14 47.9936 20 47.4243 19.72C46.8643 19.44 46.4303 19.0153 46.1223 18.446C45.8236 17.8673 45.6743 17.1253 45.6743 16.22V10.536C45.6743 10.4333 45.7023 10.354 45.7583 10.298C45.8143 10.2327 45.8936 10.2 45.9963 10.2H46.7103C46.8129 10.2 46.8923 10.2327 46.9483 10.298C47.0136 10.354 47.0463 10.4333 47.0463 10.536V16.248C47.0463 17.1627 47.2609 17.8393 47.6903 18.278C48.1196 18.7167 48.7076 18.936 49.4543 18.936C50.1916 18.936 50.7749 18.7167 51.2043 18.278C51.6429 17.8393 51.8623 17.1627 51.8623 16.248V10.536C51.8623 10.4333 51.8903 10.354 51.9463 10.298C52.0116 10.2327 52.091 10.2 52.1843 10.2H52.9123C53.0056 10.2 53.0803 10.2327 53.1363 10.298C53.2016 10.354 53.2343 10.4333 53.2343 10.536V16.22C53.2343 17.1253 53.0803 17.8673 52.7723 18.446C52.4736 19.0153 52.0443 19.44 51.4843 19.72C50.9243 20 50.2476 20.14 49.4543 20.14ZM55.7147 20C55.6214 20 55.542 19.972 55.4767 19.916C55.4207 19.8507 55.3927 19.7713 55.3927 19.678V13.042C55.3927 12.9487 55.4207 12.874 55.4767 12.818C55.542 12.7527 55.6214 12.72 55.7147 12.72H56.3727C56.466 12.72 56.5407 12.7527 56.5967 12.818C56.662 12.874 56.6947 12.9487 56.6947 13.042V13.658C56.9374 13.3407 57.2407 13.084 57.6047 12.888C57.978 12.6827 58.454 12.58 59.0327 12.58C59.6394 12.58 60.1527 12.7153 60.5727 12.986C61.002 13.2473 61.324 13.616 61.5387 14.092C61.7534 14.5587 61.8607 15.1047 61.8607 15.73V19.678C61.8607 19.7713 61.8327 19.8507 61.7767 19.916C61.7207 19.972 61.646 20 61.5527 20H60.8527C60.7594 20 60.68 19.972 60.6147 19.916C60.5587 19.8507 60.5307 19.7713 60.5307 19.678V15.8C60.5307 15.1467 60.372 14.638 60.0547 14.274C59.7374 13.9007 59.2707 13.714 58.6547 13.714C58.076 13.714 57.6094 13.9007 57.2547 14.274C56.9094 14.638 56.7367 15.1467 56.7367 15.8V19.678C56.7367 19.7713 56.704 19.8507 56.6387 19.916C56.5827 19.972 56.508 20 56.4147 20H55.7147ZM64.2189 20C64.1256 20 64.0463 19.972 63.9809 19.916C63.9249 19.8507 63.8969 19.7713 63.8969 19.678V10.382C63.8969 10.2887 63.9249 10.214 63.9809 10.158C64.0463 10.0927 64.1256 10.06 64.2189 10.06H64.8769C64.9796 10.06 65.0589 10.0927 65.1149 10.158C65.1709 10.214 65.1989 10.2887 65.1989 10.382V19.678C65.1989 19.7713 65.1709 19.8507 65.1149 19.916C65.0589 19.972 64.9796 20 64.8769 20H64.2189ZM67.7459 20C67.6526 20 67.5733 19.972 67.5079 19.916C67.4519 19.8507 67.4239 19.7713 67.4239 19.678V13.042C67.4239 12.9487 67.4519 12.874 67.5079 12.818C67.5733 12.7527 67.6526 12.72 67.7459 12.72H68.4179C68.5113 12.72 68.5859 12.7527 68.6419 12.818C68.6979 12.874 68.7259 12.9487 68.7259 13.042V19.678C68.7259 19.7713 68.6979 19.8507 68.6419 19.916C68.5859 19.972 68.5113 20 68.4179 20H67.7459ZM67.6339 11.362C67.5406 11.362 67.4613 11.334 67.3959 11.278C67.3399 11.2127 67.3119 11.1333 67.3119 11.04V10.284C67.3119 10.1907 67.3399 10.116 67.3959 10.06C67.4613 9.99467 67.5406 9.962 67.6339 9.962H68.5159C68.6093 9.962 68.6839 9.99467 68.7399 10.06C68.8053 10.116 68.8379 10.1907 68.8379 10.284V11.04C68.8379 11.1333 68.8053 11.2127 68.7399 11.278C68.6839 11.334 68.6093 11.362 68.5159 11.362H67.6339ZM71.2733 20C71.1799 20 71.1006 19.972 71.0353 19.916C70.9793 19.8507 70.9513 19.7713 70.9513 19.678V13.042C70.9513 12.9487 70.9793 12.874 71.0353 12.818C71.1006 12.7527 71.1799 12.72 71.2733 12.72H71.9033C71.9966 12.72 72.0713 12.7527 72.1273 12.818C72.1926 12.874 72.2253 12.9487 72.2253 13.042V13.532C72.4399 13.2427 72.7106 13.014 73.0373 12.846C73.364 12.6687 73.756 12.58 74.2133 12.58C75.268 12.5707 76.0146 13 76.4533 13.868C76.6679 13.476 76.9806 13.1633 77.3913 12.93C77.802 12.6967 78.2686 12.58 78.7913 12.58C79.2766 12.58 79.7153 12.692 80.1073 12.916C80.5086 13.14 80.8213 13.4807 81.0453 13.938C81.2786 14.386 81.3953 14.9507 81.3953 15.632V19.678C81.3953 19.7713 81.3626 19.8507 81.2973 19.916C81.2413 19.972 81.1666 20 81.0733 20H80.4153C80.322 20 80.2426 19.972 80.1773 19.916C80.1213 19.8507 80.0933 19.7713 80.0933 19.678V15.758C80.0933 15.2353 80.0186 14.8247 79.8693 14.526C79.72 14.2273 79.5193 14.0173 79.2673 13.896C79.0153 13.7747 78.74 13.714 78.4413 13.714C78.1986 13.714 77.9513 13.7747 77.6993 13.896C77.4473 14.0173 77.2373 14.2273 77.0693 14.526C76.9106 14.8247 76.8313 15.2353 76.8313 15.758V19.678C76.8313 19.7713 76.7986 19.8507 76.7333 19.916C76.6773 19.972 76.6026 20 76.5093 20H75.8513C75.758 20 75.6786 19.972 75.6133 19.916C75.5573 19.8507 75.5293 19.7713 75.5293 19.678V15.758C75.5293 15.2353 75.45 14.8247 75.2913 14.526C75.1326 14.2273 74.9273 14.0173 74.6753 13.896C74.4233 13.7747 74.1573 13.714 73.8773 13.714C73.6346 13.714 73.3873 13.7747 73.1353 13.896C72.8833 14.0173 72.6733 14.2273 72.5053 14.526C72.3466 14.8247 72.2673 15.2307 72.2673 15.744V19.678C72.2673 19.7713 72.2346 19.8507 72.1693 19.916C72.1133 19.972 72.0386 20 71.9453 20H71.2733ZM83.7147 20C83.6214 20 83.542 19.972 83.4767 19.916C83.4207 19.8507 83.3927 19.7713 83.3927 19.678V13.042C83.3927 12.9487 83.4207 12.874 83.4767 12.818C83.542 12.7527 83.6214 12.72 83.7147 12.72H84.3867C84.48 12.72 84.5547 12.7527 84.6107 12.818C84.6667 12.874 84.6947 12.9487 84.6947 13.042V19.678C84.6947 19.7713 84.6667 19.8507 84.6107 19.916C84.5547 19.972 84.48 20 84.3867 20H83.7147ZM83.6027 11.362C83.5094 11.362 83.43 11.334 83.3647 11.278C83.3087 11.2127 83.2807 11.1333 83.2807 11.04V10.284C83.2807 10.1907 83.3087 10.116 83.3647 10.06C83.43 9.99467 83.5094 9.962 83.6027 9.962H84.4847C84.578 9.962 84.6527 9.99467 84.7087 10.06C84.774 10.116 84.8067 10.1907 84.8067 10.284V11.04C84.8067 11.1333 84.774 11.2127 84.7087 11.278C84.6527 11.334 84.578 11.362 84.4847 11.362H83.6027ZM89.6253 20C89.1026 20 88.678 19.902 88.3513 19.706C88.0246 19.5007 87.7866 19.216 87.6373 18.852C87.488 18.4787 87.4133 18.04 87.4133 17.536V13.84H86.3213C86.228 13.84 86.1486 13.812 86.0833 13.756C86.0273 13.6907 85.9993 13.6113 85.9993 13.518V13.042C85.9993 12.9487 86.0273 12.874 86.0833 12.818C86.1486 12.7527 86.228 12.72 86.3213 12.72H87.4133V10.382C87.4133 10.2887 87.4413 10.214 87.4973 10.158C87.5626 10.0927 87.642 10.06 87.7353 10.06H88.3933C88.4866 10.06 88.5613 10.0927 88.6173 10.158C88.6826 10.214 88.7153 10.2887 88.7153 10.382V12.72H90.4513C90.5446 12.72 90.6193 12.7527 90.6753 12.818C90.7406 12.874 90.7733 12.9487 90.7733 13.042V13.518C90.7733 13.6113 90.7406 13.6907 90.6753 13.756C90.6193 13.812 90.5446 13.84 90.4513 13.84H88.7153V17.438C88.7153 17.8767 88.79 18.222 88.9393 18.474C89.0886 18.726 89.3546 18.852 89.7373 18.852H90.5913C90.6846 18.852 90.7593 18.8847 90.8153 18.95C90.8806 19.006 90.9133 19.0807 90.9133 19.174V19.678C90.9133 19.7713 90.8806 19.8507 90.8153 19.916C90.7593 19.972 90.6846 20 90.5913 20H89.6253ZM95.1501 20.14C94.1887 20.14 93.4234 19.846 92.8541 19.258C92.2847 18.6607 91.9721 17.8487 91.9161 16.822C91.9067 16.7007 91.9021 16.5467 91.9021 16.36C91.9021 16.164 91.9067 16.0053 91.9161 15.884C91.9534 15.2213 92.1074 14.6427 92.3781 14.148C92.6487 13.644 93.0174 13.2567 93.4841 12.986C93.9601 12.7153 94.5154 12.58 95.1501 12.58C95.8594 12.58 96.4521 12.7293 96.9281 13.028C97.4134 13.3267 97.7821 13.7513 98.0341 14.302C98.2861 14.8527 98.4121 15.4967 98.4121 16.234V16.472C98.4121 16.5747 98.3794 16.654 98.3141 16.71C98.2581 16.766 98.1834 16.794 98.0901 16.794H93.2461C93.2461 16.8033 93.2461 16.822 93.2461 16.85C93.2461 16.878 93.2461 16.9013 93.2461 16.92C93.2647 17.3027 93.3487 17.662 93.4981 17.998C93.6474 18.3247 93.8621 18.5907 94.1421 18.796C94.4221 19.0013 94.7581 19.104 95.1501 19.104C95.4861 19.104 95.7661 19.0527 95.9901 18.95C96.2141 18.8473 96.3961 18.7353 96.5361 18.614C96.6761 18.4833 96.7694 18.3853 96.8161 18.32C96.9001 18.1987 96.9654 18.1287 97.0121 18.11C97.0587 18.082 97.1334 18.068 97.2361 18.068H97.9081C98.0014 18.068 98.0761 18.096 98.1321 18.152C98.1974 18.1987 98.2254 18.2687 98.2161 18.362C98.2067 18.502 98.1321 18.6747 97.9921 18.88C97.8521 19.076 97.6514 19.272 97.3901 19.468C97.1287 19.664 96.8114 19.8273 96.4381 19.958C96.0647 20.0793 95.6354 20.14 95.1501 20.14ZM93.2461 15.828H97.0821V15.786C97.0821 15.366 97.0027 14.9927 96.8441 14.666C96.6947 14.3393 96.4754 14.0827 96.1861 13.896C95.8967 13.7 95.5514 13.602 95.1501 13.602C94.7487 13.602 94.4034 13.7 94.1141 13.896C93.8341 14.0827 93.6194 14.3393 93.4701 14.666C93.3207 14.9927 93.2461 15.366 93.2461 15.786V15.828ZM102.746 20.14C102.233 20.14 101.789 20.0513 101.416 19.874C101.043 19.6873 100.735 19.44 100.492 19.132C100.259 18.8147 100.081 18.4553 99.96 18.054C99.848 17.6527 99.7827 17.228 99.764 16.78C99.7547 16.6307 99.75 16.4907 99.75 16.36C99.75 16.2293 99.7547 16.0893 99.764 15.94C99.7827 15.5013 99.848 15.0813 99.96 14.68C100.081 14.2787 100.259 13.9193 100.492 13.602C100.735 13.2847 101.043 13.0373 101.416 12.86C101.789 12.6733 102.233 12.58 102.746 12.58C103.297 12.58 103.754 12.678 104.118 12.874C104.482 13.07 104.781 13.3127 105.014 13.602V10.382C105.014 10.2887 105.042 10.214 105.098 10.158C105.163 10.0927 105.243 10.06 105.336 10.06H106.008C106.101 10.06 106.176 10.0927 106.232 10.158C106.297 10.214 106.33 10.2887 106.33 10.382V19.678C106.33 19.7713 106.297 19.8507 106.232 19.916C106.176 19.972 106.101 20 106.008 20H105.378C105.275 20 105.196 19.972 105.14 19.916C105.084 19.8507 105.056 19.7713 105.056 19.678V19.09C104.823 19.3887 104.519 19.6407 104.146 19.846C103.773 20.042 103.306 20.14 102.746 20.14ZM103.04 19.006C103.507 19.006 103.88 18.8987 104.16 18.684C104.44 18.4693 104.65 18.1987 104.79 17.872C104.93 17.536 105.005 17.1953 105.014 16.85C105.023 16.7007 105.028 16.5233 105.028 16.318C105.028 16.1033 105.023 15.9213 105.014 15.772C105.005 15.4453 104.925 15.1233 104.776 14.806C104.636 14.4887 104.421 14.2273 104.132 14.022C103.852 13.8167 103.488 13.714 103.04 13.714C102.564 13.714 102.186 13.8213 101.906 14.036C101.626 14.2413 101.425 14.5167 101.304 14.862C101.183 15.198 101.113 15.562 101.094 15.954C101.085 16.2247 101.085 16.4953 101.094 16.766C101.113 17.158 101.183 17.5267 101.304 17.872C101.425 18.208 101.626 18.4833 101.906 18.698C102.186 18.9033 102.564 19.006 103.04 19.006ZM115.722 20.14C114.938 20.14 114.261 20 113.692 19.72C113.132 19.44 112.698 19.0153 112.39 18.446C112.091 17.8673 111.942 17.1253 111.942 16.22V10.536C111.942 10.4333 111.97 10.354 112.026 10.298C112.082 10.2327 112.161 10.2 112.264 10.2H112.978C113.081 10.2 113.16 10.2327 113.216 10.298C113.281 10.354 113.314 10.4333 113.314 10.536V16.248C113.314 17.1627 113.529 17.8393 113.958 18.278C114.387 18.7167 114.975 18.936 115.722 18.936C116.459 18.936 117.043 18.7167 117.472 18.278C117.911 17.8393 118.13 17.1627 118.13 16.248V10.536C118.13 10.4333 118.158 10.354 118.214 10.298C118.279 10.2327 118.359 10.2 118.452 10.2H119.18C119.273 10.2 119.348 10.2327 119.404 10.298C119.469 10.354 119.502 10.4333 119.502 10.536V16.22C119.502 17.1253 119.348 17.8673 119.04 18.446C118.741 19.0153 118.312 19.44 117.752 19.72C117.192 20 116.515 20.14 115.722 20.14ZM124.126 20.14C123.603 20.14 123.155 20.0747 122.782 19.944C122.408 19.8133 122.105 19.6547 121.872 19.468C121.638 19.2813 121.461 19.0947 121.34 18.908C121.228 18.7213 121.167 18.572 121.158 18.46C121.148 18.3573 121.181 18.278 121.256 18.222C121.33 18.166 121.405 18.138 121.48 18.138H122.096C122.152 18.138 122.194 18.1473 122.222 18.166C122.259 18.1753 122.306 18.2127 122.362 18.278C122.483 18.4087 122.618 18.5393 122.768 18.67C122.917 18.8007 123.099 18.908 123.314 18.992C123.538 19.076 123.813 19.118 124.14 19.118C124.616 19.118 125.008 19.0293 125.316 18.852C125.624 18.6653 125.778 18.3947 125.778 18.04C125.778 17.8067 125.712 17.62 125.582 17.48C125.46 17.34 125.236 17.214 124.91 17.102C124.592 16.99 124.154 16.8733 123.594 16.752C123.034 16.6213 122.59 16.4627 122.264 16.276C121.937 16.08 121.704 15.8513 121.564 15.59C121.424 15.3193 121.354 15.016 121.354 14.68C121.354 14.3347 121.456 14.0033 121.662 13.686C121.867 13.3593 122.166 13.0933 122.558 12.888C122.959 12.6827 123.458 12.58 124.056 12.58C124.541 12.58 124.956 12.6407 125.302 12.762C125.647 12.8833 125.932 13.0373 126.156 13.224C126.38 13.4013 126.548 13.5787 126.66 13.756C126.772 13.9333 126.832 14.0827 126.842 14.204C126.851 14.2973 126.823 14.3767 126.758 14.442C126.692 14.498 126.618 14.526 126.534 14.526H125.946C125.88 14.526 125.824 14.512 125.778 14.484C125.74 14.456 125.703 14.4233 125.666 14.386C125.572 14.2647 125.46 14.1433 125.33 14.022C125.208 13.9007 125.045 13.8027 124.84 13.728C124.644 13.644 124.382 13.602 124.056 13.602C123.589 13.602 123.239 13.7 123.006 13.896C122.772 14.092 122.656 14.3393 122.656 14.638C122.656 14.8153 122.707 14.974 122.81 15.114C122.912 15.254 123.108 15.38 123.398 15.492C123.687 15.604 124.116 15.7253 124.686 15.856C125.302 15.9773 125.787 16.1407 126.142 16.346C126.496 16.5513 126.748 16.7893 126.898 17.06C127.047 17.3307 127.122 17.6433 127.122 17.998C127.122 18.39 127.005 18.7493 126.772 19.076C126.548 19.4027 126.212 19.664 125.764 19.86C125.325 20.0467 124.779 20.14 124.126 20.14ZM131.64 20.14C130.679 20.14 129.914 19.846 129.344 19.258C128.775 18.6607 128.462 17.8487 128.406 16.822C128.397 16.7007 128.392 16.5467 128.392 16.36C128.392 16.164 128.397 16.0053 128.406 15.884C128.444 15.2213 128.598 14.6427 128.868 14.148C129.139 13.644 129.508 13.2567 129.974 12.986C130.45 12.7153 131.006 12.58 131.64 12.58C132.35 12.58 132.942 12.7293 133.418 13.028C133.904 13.3267 134.272 13.7513 134.524 14.302C134.776 14.8527 134.902 15.4967 134.902 16.234V16.472C134.902 16.5747 134.87 16.654 134.804 16.71C134.748 16.766 134.674 16.794 134.58 16.794H129.736C129.736 16.8033 129.736 16.822 129.736 16.85C129.736 16.878 129.736 16.9013 129.736 16.92C129.755 17.3027 129.839 17.662 129.988 17.998C130.138 18.3247 130.352 18.5907 130.632 18.796C130.912 19.0013 131.248 19.104 131.64 19.104C131.976 19.104 132.256 19.0527 132.48 18.95C132.704 18.8473 132.886 18.7353 133.026 18.614C133.166 18.4833 133.26 18.3853 133.306 18.32C133.39 18.1987 133.456 18.1287 133.502 18.11C133.549 18.082 133.624 18.068 133.726 18.068H134.398C134.492 18.068 134.566 18.096 134.622 18.152C134.688 18.1987 134.716 18.2687 134.706 18.362C134.697 18.502 134.622 18.6747 134.482 18.88C134.342 19.076 134.142 19.272 133.88 19.468C133.619 19.664 133.302 19.8273 132.928 19.958C132.555 20.0793 132.126 20.14 131.64 20.14ZM129.736 15.828H133.572V15.786C133.572 15.366 133.493 14.9927 133.334 14.666C133.185 14.3393 132.966 14.0827 132.676 13.896C132.387 13.7 132.042 13.602 131.64 13.602C131.239 13.602 130.894 13.7 130.604 13.896C130.324 14.0827 130.11 14.3393 129.96 14.666C129.811 14.9927 129.736 15.366 129.736 15.786V15.828ZM136.898 20C136.805 20 136.726 19.972 136.66 19.916C136.604 19.8507 136.576 19.7713 136.576 19.678V13.056C136.576 12.9627 136.604 12.8833 136.66 12.818C136.726 12.7527 136.805 12.72 136.898 12.72H137.542C137.636 12.72 137.715 12.7527 137.78 12.818C137.846 12.8833 137.878 12.9627 137.878 13.056V13.672C138.065 13.3547 138.322 13.1167 138.648 12.958C138.975 12.7993 139.367 12.72 139.824 12.72H140.384C140.478 12.72 140.552 12.7527 140.608 12.818C140.664 12.874 140.692 12.9487 140.692 13.042V13.616C140.692 13.7093 140.664 13.784 140.608 13.84C140.552 13.896 140.478 13.924 140.384 13.924H139.544C139.04 13.924 138.644 14.0733 138.354 14.372C138.065 14.6613 137.92 15.058 137.92 15.562V19.678C137.92 19.7713 137.888 19.8507 137.822 19.916C137.757 19.972 137.678 20 137.584 20H136.898Z" fill="#4F5665"/>
<path d="M10.6662 19.7299C10.5349 19.7302 10.4049 19.7045 10.2835 19.6544C10.1622 19.6043 10.052 19.5307 9.95916 19.4379L5.71716 15.1949C5.62159 15.1027 5.54533 14.9924 5.49284 14.8705C5.44035 14.7485 5.41267 14.6173 5.41142 14.4845C5.41017 14.3517 5.43538 14.22 5.48558 14.0971C5.53577 13.9742 5.60994 13.8625 5.70377 13.7685C5.7976 13.6746 5.90919 13.6002 6.03205 13.5499C6.15491 13.4995 6.28657 13.4741 6.41935 13.4752C6.55213 13.4762 6.68337 13.5037 6.80541 13.556C6.92745 13.6083 7.03785 13.6845 7.13016 13.7799L10.6652 17.3149L17.0302 10.9519C17.2177 10.7643 17.472 10.6588 17.7373 10.6587C18.0026 10.6586 18.257 10.7639 18.4447 10.9514C18.6323 11.1389 18.7378 11.3933 18.7379 11.6585C18.738 11.9238 18.6327 12.1783 18.4452 12.3659L11.3732 19.4379C11.2803 19.5307 11.1701 19.6043 11.0488 19.6544C10.9275 19.7045 10.7974 19.7302 10.6662 19.7299Z" fill="#2FAB73"/>
</svg>
